<?xml version="1.0" encoding="UTF-8"?>
<svg version="1.1" xmlns="http://www.w3.org/2000/svg" width="1024" height="1024">
<path d="M0 0 C337.92 0 675.84 0 1024 0 C1024 337.92 1024 675.84 1024 1024 C686.08 1024 348.16 1024 0 1024 C0 686.08 0 348.16 0 0 Z " fill="#0F0F15" transform="translate(0,0)"/>
<path d="M0 0 C32.32295761 -0.09166548 64.64587756 -0.16225109 96.96893519 -0.20426132 C100.80318357 -0.20926289 104.63743169 -0.2144403 108.47167969 -0.21972656 C109.6164567 -0.22130043 109.6164567 -0.22130043 110.78436053 -0.22290608 C123.0685828 -0.24021195 135.35272858 -0.27169406 147.63690579 -0.30861118 C160.28415432 -0.34629646 172.93136338 -0.3682934 185.57866573 -0.37635398 C192.66454614 -0.3813035 199.75026697 -0.39310337 206.83609009 -0.42292023 C276.53964418 -0.70757045 276.53964418 -0.70757045 296 6 C298.30970346 6.59430966 300.62244469 7.17689185 302.9375 7.75 C310.93548999 9.80654022 318.40750229 12.76456063 326 16 C327.14984375 16.47050781 328.2996875 16.94101562 329.484375 17.42578125 C346.74008167 25.15250324 365.68197326 38.89650827 376 55 C376 55.66 376 56.32 376 57 C376.81339844 56.34515625 377.62679688 55.6903125 378.46484375 55.015625 C392.55976035 43.75222053 406.94347089 33.29524181 423 25 C424.25611084 24.34451172 424.25611084 24.34451172 425.53759766 23.67578125 C459.24302733 6.27156734 493.66663551 -0.17989796 531.29199219 -0.11352539 C533.54003905 -0.11324296 535.788086 -0.11340234 538.03613281 -0.1139679 C544.10961683 -0.11425369 550.18308092 -0.10839219 556.25656033 -0.10139394 C562.61466304 -0.09512411 568.97276625 -0.09455373 575.33087158 -0.09336853 C585.99304589 -0.09061795 596.65521237 -0.08438039 607.31738281 -0.07543945 C618.29394495 -0.06624452 629.2705051 -0.05917389 640.24707031 -0.05493164 C640.92495262 -0.05466892 641.60283493 -0.05440619 642.30125913 -0.05413551 C645.70237975 -0.05283036 649.10350039 -0.05156668 652.50462103 -0.05032361 C680.6697524 -0.03997599 708.83487575 -0.02230468 737 0 C735.68109182 4.04789542 734.22407169 7.79901889 732.3125 11.60546875 C731.78374268 12.6617749 731.25498535 13.71808105 730.71020508 14.80639648 C730.1458374 15.92216064 729.58146973 17.0379248 729 18.1875 C728.41694092 19.34644775 727.83388184 20.50539551 727.2331543 21.69946289 C723.12274771 29.84433453 718.93576708 37.9452179 714.65263367 46.00042725 C711.98886152 51.01579155 709.34243036 56.04018294 706.69921875 61.06640625 C706.24397827 61.93172974 705.78873779 62.79705322 705.31970215 63.68859863 C704.21297903 65.79231723 703.1064138 67.89611871 702 70 C701.32121544 70.00238835 700.64243088 70.00477671 699.94307709 70.00723743 C683.31091278 70.06676453 666.67890625 70.14254876 650.04689789 70.23571491 C642.00328393 70.28039321 633.95971149 70.31986943 625.91601562 70.34643555 C618.89279839 70.36964523 611.86971574 70.40329086 604.84660578 70.44870156 C601.13910696 70.4723297 597.43173885 70.49125466 593.72416687 70.49761391 C576.28751708 70.53135026 559.25357867 71.3081082 542 74 C540.72144135 74.19173294 539.44288269 74.38346588 538.12557983 74.58100891 C535.429486 74.99554294 532.74652064 75.45146267 530.0625 75.9375 C529.12124268 76.10515869 528.17998535 76.27281738 527.21020508 76.44555664 C513.37457978 78.96400946 499.85752503 82.48043359 486.34228516 86.33789062 C484.01712987 86.99515778 481.68726946 87.6323806 479.35546875 88.265625 C452.21421638 95.71116407 425.87033774 105.15762518 399.9831543 116.15753174 C398.00745884 116.99683139 396.03018346 117.83232222 394.05273438 118.66748047 C366.94458531 130.14414219 340.21478235 142.70096939 314.33203125 156.73828125 C311.68561211 158.17009596 309.0304254 159.58496123 306.375 161 C293.12106291 168.08883836 280.07963465 175.49385163 267.14208984 183.14355469 C263.875766 185.07340135 260.60415807 186.99407377 257.33203125 188.9140625 C237.81281911 200.39290858 218.45957885 212.13452757 199.71240234 224.84375 C197.35045629 226.43858555 194.97421976 228.01152392 192.59863281 229.5859375 C177.59270503 239.54232699 162.79845437 249.7669104 148.24267578 260.37060547 C145.97805396 262.01594468 143.70701394 263.65199948 141.43359375 265.28515625 C121.88420947 279.33202963 102.7406005 293.88874115 84 309 C82.33384786 310.33397624 80.66716856 311.66729427 79 313 C78.17886719 313.65742187 77.35773438 314.31484375 76.51171875 314.9921875 C74.8080104 316.35409433 73.10220948 317.71338677 71.39453125 319.0703125 C67.52959304 322.14589116 63.70477119 325.23243783 60 328.5 C57 331 57 331 55 331 C55 331.66 55 332.32 55 333 C53.453125 334.33984375 53.453125 334.33984375 51.25 335.9375 C47.27421786 338.93655456 43.58259959 342.1164994 39.9375 345.5 C39.42010254 345.97953125 38.90270508 346.4590625 38.36962891 346.953125 C37.86222168 347.42363281 37.35481445 347.89414062 36.83203125 348.37890625 C32.30409339 352.56959081 27.66407514 356.6156801 22.92578125 360.56640625 C15.71107042 366.61645662 8.89667388 372.91196697 2.32592773 379.66015625 C-0.55435199 382.60812715 -3.45926136 385.43629549 -6.59765625 388.109375 C-12.25910652 392.99278571 -17.48024757 398.33123145 -22.75463867 403.62426758 C-24.55862085 405.43360933 -26.36788665 407.23754319 -28.17773438 409.04101562 C-33.55687158 414.41811734 -38.88227085 419.77129513 -43.74584961 425.62915039 C-45 427 -45 427 -47 428 C-45.69966161 424.53319813 -44.18465408 421.45447576 -42.2421875 418.3046875 C-41.70287598 417.42917236 -41.16356445 416.55365723 -40.60791016 415.65161133 C-40.0360498 414.73532959 -39.46418945 413.81904785 -38.875 412.875 C-38.28895996 411.93229248 -37.70291992 410.98958496 -37.09912109 410.01831055 C-33.50943248 404.28836784 -29.8197362 398.72509783 -25.75 393.32421875 C-23.97434403 390.96592566 -22.29614569 388.55821907 -20.625 386.125 C-8.39361447 368.58408121 5.56959755 352.07945225 19.94921875 336.26953125 C21.85228088 334.16347582 23.71153821 332.02679531 25.5625 329.875 C28.57232342 326.41335551 31.77969977 323.20166969 35.046875 319.984375 C36.86987667 318.1322053 38.56603666 316.2282482 40.25 314.25 C46.82657612 306.61996775 54.0821637 299.48821735 61.75390625 292.96484375 C64.2174792 290.80975298 66.60021753 288.58116686 68.98583984 286.34057617 C74.63515491 281.03481074 80.36960934 275.9582662 86.421875 271.109375 C89.0242629 268.98014854 91.51575502 266.76550643 94 264.5 C98.19657095 260.6849355 102.50777483 257.05735125 106.91796875 253.4921875 C109.13919369 251.69606391 111.34900377 249.88991464 113.55078125 248.0703125 C122.61654488 240.602684 131.91014841 233.49081185 141.3359375 226.484375 C145.03916087 223.72952006 148.68438213 220.91521537 152.3125 218.0625 C161.04909046 211.30740429 170.20169714 205.12460912 179.29541016 198.86425781 C181.61176217 197.26761004 183.9227792 195.66381185 186.23046875 194.0546875 C203.70335678 181.89953794 221.65166135 170.46786513 239.79931641 159.3515625 C241.65628525 158.21109439 243.50664778 157.05987985 245.35546875 155.90625 C256.41463536 149.01070622 267.71459211 142.51589452 279 136 C279.92039062 135.46745605 280.84078125 134.93491211 281.7890625 134.38623047 C323.14285932 110.52189473 365.84620912 88.97044396 410.0625 70.9375 C410.7277771 70.66541718 411.3930542 70.39333435 412.07849121 70.11300659 C419.39167433 67.13056003 426.72943932 64.36012874 434.24609375 61.92871094 C436.8254067 61.0588788 439.32449223 60.08923857 441.83984375 59.05078125 C448.29575529 56.41469234 454.92452375 54.31196177 461.5625 52.1875 C462.24018433 51.97001099 462.91786865 51.75252197 463.61608887 51.52844238 C484.43019204 44.86242409 505.33946974 39.22724324 526.72607422 34.6953125 C529.87332951 34.02690213 533.01690117 33.34318989 536.16015625 32.65625 C560.60618762 27.36906194 585.26042726 23.2952176 610.27856445 22.34106445 C611.06835693 22.30972412 611.85814941 22.27838379 612.671875 22.24609375 C613.70973145 22.21020142 613.70973145 22.21020142 614.76855469 22.17358398 C617.08565698 22.03205163 617.08565698 22.03205163 619.67901611 21.50892639 C623.26713266 20.95906308 626.73899892 20.78854135 630.3671875 20.68359375 C631.38656906 20.6524221 631.38656906 20.6524221 632.42654419 20.62062073 C634.57593666 20.5557637 636.7254407 20.49654059 638.875 20.4375 C640.3411569 20.39425388 641.80730294 20.35063775 643.2734375 20.30664062 C646.84884275 20.20014896 650.42437037 20.09870591 654 20 C643.50462508 19.92933145 633.00931008 19.87661382 622.51374245 19.84456348 C617.63602707 19.82915232 612.75847866 19.80838704 607.88085938 19.77368164 C588.47902761 19.63941782 569.17296893 19.62678105 549.8359375 21.38671875 C548.79331694 21.48101638 548.79331694 21.48101638 547.72963333 21.57721901 C540.77645573 22.22495265 533.93305464 23.05125705 527.10957336 24.55322266 C524.15208143 25.17957698 521.17443958 25.5776031 518.18066406 25.98730469 C498.66148276 28.66767061 479.8381683 33.40301459 461.00292969 39.10595703 C458.04392181 39.98692344 455.07636917 40.82644738 452.1015625 41.65234375 C436.7407001 45.94266893 421.87362345 51.25524036 407 57 C405.7941626 57.462854 405.7941626 57.462854 404.56396484 57.93505859 C396.59346601 61.00537817 388.80687398 64.39405646 381.07861328 68.03076172 C377.59527918 69.65500841 374.09511676 71.24234576 370.59790039 72.83642578 C348.09506888 82.62069362 348.09506888 82.62069362 326.60546875 94.35546875 C322.80490394 96.754326 318.93290981 99.02858776 315.0625 101.3125 C314.31516602 101.75787109 313.56783203 102.20324219 312.79785156 102.66210938 C312.09241211 103.07912109 311.38697266 103.49613281 310.66015625 103.92578125 C310.02730713 104.30130127 309.39445801 104.67682129 308.74243164 105.0637207 C307 106 307 106 304 107 C303.57589844 106.07058594 303.15179688 105.14117187 302.71484375 104.18359375 C296.34475778 90.58905492 288.68221304 83.44092003 274.5234375 77.5546875 C257.94764774 71.62715669 241.32387025 70.55184504 223.86279297 70.56762695 C221.81089701 70.55858614 219.7590064 70.54825334 217.7071228 70.53674316 C212.19595308 70.50941924 206.6848865 70.49992248 201.17365789 70.49388909 C195.39210857 70.48444066 189.61063439 70.45823257 183.82913208 70.43388367 C172.90746229 70.39039166 161.98580723 70.36173882 151.0640775 70.33856028 C138.61887129 70.31141534 126.17374131 70.26750993 113.72858977 70.22227156 C88.15243465 70.12967333 62.57625562 70.05787953 37 70 C36.66234116 69.35268417 36.32468231 68.70536835 35.97679138 68.03843689 C34.42078392 65.05554204 32.86468932 62.07269264 31.30859375 59.08984375 C30.77762085 58.07192749 30.24664795 57.05401123 29.69958496 56.00524902 C20.70301103 38.72199725 20.70301103 38.72199725 11.48828125 21.5546875 C10.88943115 20.45697021 10.29058105 19.35925293 9.67358398 18.22827148 C8.49079651 16.06418944 7.30421502 13.90217595 6.11352539 11.74243164 C5.57848389 10.76395264 5.04344238 9.78547363 4.4921875 8.77734375 C4.01120605 7.90327881 3.53022461 7.02921387 3.03466797 6.12866211 C2 4 2 4 2 2 C1.34 2 0.68 2 0 2 C0 1.34 0 0.68 0 0 Z " fill="#28E0E5" transform="translate(169,301)"/>
<path d="M0 0 C0.495 0.99 0.495 0.99 1 2 C0.16996826 4.42067437 -0.72353106 6.75813438 -1.6875 9.125 C-6.49897027 21.4807436 -9.64473247 33.67036242 -10 47 C-10.04664795 48.16257324 -10.04664795 48.16257324 -10.09423828 49.34863281 C-10.82668119 68.68659783 -8.66302778 86.86238981 5.0625 101.8125 C21.74638256 117.24792876 43.12038029 120.28849595 64.97973633 120.31884766 C66.53828946 120.32816959 68.09683769 120.33834154 69.65538025 120.34928894 C73.84454918 120.37634801 78.03368496 120.39166596 82.2229178 120.40471697 C86.61647948 120.42045418 91.00997448 120.44721004 95.40348816 120.4727478 C103.70453265 120.51934953 112.00558996 120.55618309 120.30669755 120.58942068 C129.76514347 120.62777434 139.22352211 120.67714936 148.68191111 120.72740483 C168.12122468 120.83044762 187.56057944 120.91979707 207 121 C206.53040272 122.42531515 206.05936095 123.85015442 205.58772278 125.27479553 C205.32556882 126.06830445 205.06341486 126.86181337 204.79331684 127.67936802 C203.69884051 130.88095991 202.43331211 133.99638834 201.13671875 137.12109375 C200.86342239 137.78238785 200.59012604 138.44368195 200.30854797 139.12501526 C199.43774054 141.23038164 198.56279785 143.33399713 197.6875 145.4375 C197.14489078 146.746624 196.60257249 148.05586863 196.06054688 149.36523438 C195.17910799 151.49432709 194.29738113 153.62329701 193.41452026 155.75180054 C189.76743494 164.54822539 186.14439762 173.35455905 182.51953125 182.16015625 C182.19773077 182.94187132 181.87593029 183.72358639 181.54437828 184.52898979 C179.69599785 189.01922188 177.84788997 193.50956605 176 198 C156.91825244 198.07040741 137.83653162 198.12314238 118.75468063 198.15543652 C109.89256165 198.17083677 101.03052386 198.19179362 92.16845703 198.22631836 C84.43486414 198.25643217 76.70133012 198.27562456 68.96768022 198.28226548 C64.88131044 198.28614095 60.79510892 198.29510174 56.70879364 198.31719017 C34.41919023 198.43290344 13.48831504 197.46152131 -8 191 C-8.94101562 190.74992188 -9.88203125 190.49984375 -10.8515625 190.2421875 C-36.67792002 182.7489063 -61.73556431 163.96881529 -77 142 C-75.55548071 138.80038977 -73.75800692 136.36656969 -71.5 133.6875 C-55.37866939 113.6369562 -44.57887853 90.73345751 -35.375 66.875 C-26.03759556 42.68226741 -15.64839255 20.82910464 0 0 Z " fill="#1AB1C3" transform="translate(615,458)"/>
<path d="M0 0 C29.04 0 58.08 0 88 0 C86.00405919 7.98376325 83.93967067 15.90352246 81.6875 23.8125 C79.33016996 32.14152465 77.07861894 40.48794542 74.9375 48.875 C73.03201405 56.30122166 70.91315104 63.60091209 68.53100586 70.88647461 C65.76115814 79.49641591 63.39905339 88.21884016 61 96.9375 C54.88889252 119.1393035 54.88889252 119.1393035 51.89306641 128.71435547 C50.83653886 132.10077672 49.87179403 135.43859741 49.171875 138.91796875 C46.95425901 149.06030072 41.8657879 153.89253372 34 160 C32.2476125 161.41371231 30.49753466 162.83029332 28.75 164.25 C27.86183594 164.96414063 26.97367187 165.67828125 26.05859375 166.4140625 C21.45469198 170.22557835 17.16066696 174.3903606 12.83300781 178.50878906 C9.65892908 181.52616265 6.46313059 184.48608377 3.140625 187.33984375 C-1.81894224 191.64526273 -6.43086916 196.28492734 -11.0625 200.9375 C-11.92166016 201.79279297 -12.78082031 202.64808594 -13.66601562 203.52929688 C-18.65368098 208.5245828 -23.41808328 213.63209605 -28 219 C-29.08068944 220.23815161 -30.1627093 221.47514334 -31.24609375 222.7109375 C-47.02736744 240.80261495 -61.93025767 259.70306189 -74.30078125 280.3125 C-76 283 -76 283 -78 285 C-77.22573215 279.02998735 -75.45595931 273.37952379 -73.75 267.625 C-73.27856567 266.01915039 -73.27856567 266.01915039 -72.79760742 264.38085938 C-71.03372054 258.39902123 -69.21108523 252.44027044 -67.3125 246.5 C-65.29749476 240.1399346 -63.65094105 233.75751764 -62.08569336 227.27709961 C-61.0648387 223.16503191 -59.87422746 219.11728877 -58.6484375 215.0625 C-56.28575554 207.1348978 -54.19144838 199.15694853 -52.17749023 191.13473511 C-49.22828095 179.40582882 -46.13550963 167.74756584 -42.66894531 156.15942383 C-40.0570744 147.36126601 -37.70614283 138.50068423 -35.375 129.625 C-35.18004944 128.88281219 -34.98509888 128.14062439 -34.78424072 127.37594604 C-34.5913446 126.64143219 -34.39844849 125.90691833 -34.19970703 125.15014648 C-33.82066644 123.70686103 -33.44159799 122.26358288 -33.0625 120.8203125 C-32.88000702 120.12533157 -32.69751404 119.43035065 -32.50949097 118.71430969 C-30.99161969 112.94439102 -29.41323918 107.19366785 -27.79882812 101.45019531 C-26.11168626 95.43726714 -24.49108151 89.40737799 -22.875 83.375 C-19.7537583 71.73742913 -16.57148914 60.1170891 -13.375 48.5 C-13.14520447 47.66458679 -12.91540894 46.82917358 -12.6786499 45.96844482 C-10.05523416 36.4333331 -7.42270432 26.90081905 -4.76791382 17.37438965 C-3.15729005 11.5884546 -1.58034607 5.79460226 0 0 Z " fill="#1CC3CF" transform="translate(215,395)"/>
<path d="M0 0 C1.42470122 2.84940245 0.6759475 4.69172204 0.125 7.8125 C-3.73780271 31.74621676 -5.14673663 57.08988331 9 78 C19.68875145 91.75484748 36.59697275 98.12624199 53.33060265 100.59101486 C59.87030811 101.31991993 66.40905971 101.30972427 72.97973633 101.31884766 C74.53828946 101.32816959 76.09683769 101.33834154 77.65538025 101.34928894 C81.84454918 101.37634801 86.03368496 101.39166596 90.2229178 101.40471697 C94.61647948 101.42045418 99.00997448 101.44721004 103.40348816 101.4727478 C111.70453265 101.51934953 120.00558996 101.55618309 128.30669755 101.58942068 C137.76514347 101.62777434 147.22352211 101.67714936 156.68191111 101.72740483 C176.12122468 101.83044762 195.56057944 101.91979707 215 102 C214.53073439 103.42432367 214.06002263 104.84817093 213.5887146 106.27182007 C213.32674475 107.06477667 213.06477489 107.85773327 212.79486656 108.67471886 C211.68803459 111.91261517 210.40928766 115.06496748 209.1015625 118.2265625 C208.83006378 118.88522812 208.55856506 119.54389374 208.27883911 120.22251892 C207.39748963 122.35804609 206.51156721 124.49163423 205.625 126.625 C205.00672966 128.11706208 204.38856721 129.60916888 203.77050781 131.10131836 C202.49319289 134.18311856 201.21352307 137.26392907 199.93261719 140.34423828 C198.33865434 144.17973022 196.75527136 148.01948167 195.17550659 151.86083984 C193.98877026 154.74332534 192.79625631 157.6233947 191.60223389 160.50286865 C191.03526689 161.87308288 190.47051807 163.24421711 189.90802002 164.61627197 C189.12726688 166.518998 188.33818449 168.41805109 187.546875 170.31640625 C187.10182617 171.39349854 186.65677734 172.47059082 186.19824219 173.58032227 C185 176 185 176 183 177 C181.67266882 170.4840106 181.66947339 163.91342334 181.48242188 157.2890625 C181.27053844 151.34033514 180.74277439 145.49931405 179.97631836 139.60107422 C179.88263725 138.86674667 179.78895615 138.13241913 179.69243622 137.37583923 C179.46352478 135.58364904 179.2320303 133.79178908 179 132 C178.43275396 132.00184359 177.86550793 132.00368717 177.28107262 132.00558662 C163.37026526 132.05008259 149.45946879 132.08300867 135.54860497 132.10362434 C128.8209493 132.11386322 122.0933487 132.12803782 115.36572266 132.15087891 C108.85582606 132.17283884 102.34597894 132.1846167 95.83604813 132.18975449 C93.37015633 132.19340917 90.9042668 132.20054374 88.43839645 132.21146011 C47.91359588 132.38349308 47.91359588 132.38349308 30.5 126.875 C29.50009033 126.56933105 28.50018066 126.26366211 27.4699707 125.94873047 C19.2111618 123.30532271 12.10786279 119.98863193 5 115 C4.04351563 114.33484375 3.08703125 113.6696875 2.1015625 112.984375 C-8.25762072 105.14969862 -19.33611245 92.67466791 -23 80 C-24.45123317 69.45985803 -22.993116 59.13399574 -20 49 C-19.55816153 47.42720469 -19.11679086 45.85427792 -18.67578125 44.28125 C-15.71368467 33.90993866 -12.29113027 23.89835462 -8 14 C-7.73123047 13.37883301 -7.46246094 12.75766602 -7.18554688 12.11767578 C-2.43294893 1.21647446 -2.43294893 1.21647446 0 0 Z " fill="#25ECFA" transform="translate(607,477)"/>
<path d="M0 0 C29.04 0 58.08 0 88 0 C87.34 0.66 86.68 1.32 86 2 C85.01 2 84.02 2 83 2 C82.67 2.99 82.34 3.98 82 5 C79.76953125 6.69140625 79.76953125 6.69140625 76.8125 8.5625 C71.92890696 11.71868303 67.15536273 14.97608301 62.4375 18.375 C52.90403957 25.24213726 52.90403957 25.24213726 46.13671875 25.34375 C45.46711624 25.3583728 44.79751373 25.37299561 44.10762024 25.38806152 C41.96764084 25.43450803 39.82775145 25.46871329 37.6875 25.5 C34.87857465 25.54136856 32.07027711 25.59517838 29.26171875 25.65625 C27.38939575 25.68428711 27.38939575 25.68428711 25.47924805 25.71289062 C21.94928042 26.00418541 19.23077344 26.5520277 16 28 C14.64305612 29.4951529 14.64305612 29.4951529 13.99609375 31.5 C13.68397949 32.30695313 13.37186523 33.11390625 13.05029297 33.9453125 C12.70369629 34.95335937 12.35709961 35.96140625 12 37 C11.78611633 37.6197168 11.57223267 38.23943359 11.35186768 38.87792969 C9.7959779 43.41928514 8.30937349 47.98133092 6.84594727 52.55322266 C6.0726618 54.96826376 5.29189125 57.38077798 4.50976562 59.79296875 C1.75628335 68.31931939 -0.89762737 76.86579511 -3.35496521 85.48266602 C-4.39066008 89.08284215 -5.57394215 92.53778215 -7 96 C-7.41497781 97.29047785 -7.81068584 98.58736779 -8.18359375 99.890625 C-8.38726562 100.59533936 -8.5909375 101.30005371 -8.80078125 102.02612305 C-9.01089844 102.76000244 -9.22101563 103.49388184 -9.4375 104.25 C-11.49583982 111.33227461 -13.66367153 118.32949252 -16.1875 125.26171875 C-18.48737373 131.59321637 -20.62861836 137.85492328 -22.2265625 144.40234375 C-23.02365082 147.07943332 -24.07681624 149.57690564 -25.20117188 152.13110352 C-26.58518051 155.36905769 -27.74341382 158.6883912 -28.9375 162 C-35.47838178 179.92915423 -42.31725068 197.79107727 -49.69482422 215.39355469 C-51.62297969 220.0130193 -53.39458136 224.67822817 -55.125 229.375 C-60.50305017 243.87712934 -60.50305017 243.87712934 -63 248 C-63.99 248.33 -64.98 248.66 -66 249 C-66.2637905 243.31719887 -65.34143362 238.58352122 -63.8125 233.125 C-63.61591797 232.3928125 -63.41933594 231.660625 -63.21679688 230.90625 C-61.96002244 226.28132007 -60.61102857 221.68644294 -59.24079895 217.09394836 C-56.67887256 208.48828511 -54.36362013 199.84276147 -52.17749023 191.13473511 C-49.22828095 179.40582882 -46.13550963 167.74756584 -42.66894531 156.15942383 C-40.0570744 147.36126601 -37.70614283 138.50068423 -35.375 129.625 C-35.08257416 128.51171829 -35.08257416 128.51171829 -34.78424072 127.37594604 C-34.5913446 126.64143219 -34.39844849 125.90691833 -34.19970703 125.15014648 C-33.82066644 123.70686103 -33.44159799 122.26358288 -33.0625 120.8203125 C-32.88000702 120.12533157 -32.69751404 119.43035065 -32.50949097 118.71430969 C-30.99161969 112.94439102 -29.41323918 107.19366785 -27.79882812 101.45019531 C-26.11168626 95.43726714 -24.49108151 89.40737799 -22.875 83.375 C-19.7537583 71.73742913 -16.57148914 60.1170891 -13.375 48.5 C-13.14520447 47.66458679 -12.91540894 46.82917358 -12.6786499 45.96844482 C-10.05523416 36.4333331 -7.42270432 26.90081905 -4.76791382 17.37438965 C-3.15729005 11.5884546 -1.58034607 5.79460226 0 0 Z " fill="#32EBF6" transform="translate(215,395)"/>
<path d="M0 0 C0 6.74742227 -4.57771049 10.46690141 -9 15 C-9 10.72946073 -6.69874028 9.17101982 -4 6 C-4 5.34 -4 4.68 -4 4 C-26.158979 10.64356726 -44.79428911 22.22719188 -61.61401367 37.95483398 C-70.11467347 45.88737689 -79.3143577 53.54290513 -89 60 C-89.78668381 61.80922174 -89.78668381 61.80922174 -90.2109375 63.9296875 C-90.40067139 64.71883545 -90.59040527 65.5079834 -90.78588867 66.32104492 C-90.98029541 67.1638501 -91.17470215 68.00665527 -91.375 68.875 C-96.01308991 87.45681334 -103.99722534 102.48088956 -117.5 116.125 C-118.18739258 116.82326904 -118.87478516 117.52153809 -119.58300781 118.2409668 C-123.87259236 122.41386575 -128.24787773 125.55048761 -133.45019531 128.49414062 C-136.08209078 130.04848104 -138.4930879 131.77368751 -140.953125 133.5859375 C-145.94500105 137.12460568 -151.04166439 139.46877084 -156.75 141.625 C-157.74805664 142.00470947 -158.74611328 142.38441895 -159.77441406 142.77563477 C-185.52377841 152.26234939 -214.31035613 155.58616708 -241.53515625 151.46484375 C-245.43606368 150.94149766 -249.26070936 150.85043014 -253.1875 150.875 C-253.94981934 150.87693359 -254.71213867 150.87886719 -255.49755859 150.88085938 C-264.6775362 150.94774446 -273.83744899 151.46440203 -283 152 C-277.05220597 145.75366099 -270.97474159 142.52303644 -262.265625 142.2746582 C-259.2591147 142.23285621 -256.25641427 142.26416313 -253.25 142.30078125 C-251.62588562 142.29713696 -250.00177557 142.29041865 -248.37768555 142.2808075 C-244.11663438 142.26182637 -239.85640279 142.27566921 -235.59539795 142.29931641 C-228.80755158 142.33379598 -222.01991872 142.32751327 -215.23205566 142.3031826 C-212.89365559 142.3008618 -210.55607278 142.31840377 -208.21777344 142.3384552 C-179.34328299 142.42208477 -150.14551308 133.98750765 -128 115 C-127.41089844 114.55527344 -126.82179688 114.11054687 -126.21484375 113.65234375 C-110.71631351 101.67121045 -98.98655879 79.72789892 -94.53125 61.0625 C-89.9714074 42.28397841 -89.9714074 42.28397841 -83.1875 38.125 C-81.47339977 37.34386575 -79.75635071 36.56589377 -78.00683594 35.86767578 C-73.93743232 34.10822804 -70.15680983 31.76045319 -66.3125 29.5625 C-64.76899927 28.70589091 -63.22356554 27.85275102 -61.67578125 27.00390625 C-61.01489502 26.64111572 -60.35400879 26.2783252 -59.6730957 25.90454102 C-58.45988376 25.24863116 -57.23356425 24.61678212 -56 24 C-56.99 23.01 -56.99 23.01 -58 22 C-45.85146369 14.37341887 -31.5437278 10.44333044 -18.06982422 5.8034668 C-13.83535221 4.34468202 -9.61814394 2.86900686 -5.4375 1.26171875 C-2 0 -2 0 0 0 Z " fill="#1CA3B3" transform="translate(599,437)"/>
<path d="M0 0 C0.33 0.66 0.66 1.32 1 2 C0.34 2 -0.32 2 -1 2 C-1.268125 2.57363281 -1.53625 3.14726562 -1.8125 3.73828125 C-3.03775817 6.07191442 -4.4377556 8.06570172 -6 10.1875 C-18.76613445 28.31911124 -28.042467 48.11848572 -35.5 68.9375 C-46.3415967 99.17297776 -60.29980617 126.71426977 -82.45703125 150.24609375 C-84.24535623 152.18275906 -85.93872497 154.11033621 -87.60546875 156.14453125 C-109.07476343 181.74657759 -146.89248645 198.71039103 -178.98486328 204.99633789 C-182.19111682 205.62805006 -185.37853798 206.31054272 -188.56469727 207.03613281 C-206.80674674 210.92957168 -225.13174334 210.60389507 -243.68792725 210.62164307 C-250.63127345 210.63052388 -257.57441912 210.6666938 -264.51759911 210.7138176 C-266.89790999 210.72609632 -269.27794443 210.72567366 -271.65827942 210.72354126 C-280.15894528 210.74705559 -288.46573617 211.21476673 -296.90163898 212.30248451 C-301.31270569 212.86602588 -305.55165811 213.09168552 -310 213 C-309.28515625 211.07421875 -309.28515625 211.07421875 -308 209 C-305.93359375 208.20703125 -305.93359375 208.20703125 -303.4375 207.8125 C-302.63183594 207.67457031 -301.82617188 207.53664063 -300.99609375 207.39453125 C-300.00738281 207.26433594 -299.01867187 207.13414062 -298 207 C-296.73744385 206.82597656 -295.4748877 206.65195312 -294.17407227 206.47265625 C-287.85918102 205.77974107 -281.56198512 205.95332766 -275.21875 206.04296875 C-273.87903749 206.05504522 -272.53931479 206.06603297 -271.19958496 206.07600403 C-265.56887659 206.11813787 -259.93839144 206.16471269 -254.30810547 206.24682617 C-237.15762491 206.48884998 -220.69805926 205.85054021 -203.79281616 202.5328064 C-199.76411552 201.76422109 -195.71713619 201.1178868 -191.66775513 200.4684906 C-187.83143427 199.79478549 -184.11443054 198.82941422 -180.375 197.75 C-179.61775635 197.53456543 -178.8605127 197.31913086 -178.08032227 197.09716797 C-149.15074008 188.74285164 -117.64242584 177.55390732 -96.31640625 155.23828125 C-95 154 -95 154 -93 154 C-92.773125 153.443125 -92.54625 152.88625 -92.3125 152.3125 C-91.00288329 150.00508009 -89.50832471 148.42730237 -87.61328125 146.59375 C-81.49419929 140.54874893 -76.24642308 134.27940844 -71.78515625 126.921875 C-70.58981592 124.96538798 -69.34648026 123.03747193 -68.05859375 121.140625 C-55.93027623 103.1826742 -46.3730788 83.3472663 -39 63 C-38.76522949 62.35289062 -38.53045898 61.70578125 -38.28857422 61.0390625 C-37.24706591 58.14996263 -36.22222808 55.25506917 -35.19921875 52.359375 C-29.2547446 35.70710214 -20.84925753 21.91659386 -10.63671875 7.5546875 C-10.20061279 6.94093262 -9.76450684 6.32717773 -9.31518555 5.69482422 C-6.45459038 2.00849572 -4.71739268 0.6374855 0 0 Z " fill="#188D9E" transform="translate(604,445)"/>
<path d="M0 0 C-4.59066294 4.59066294 -12.51540246 5.87694268 -18.625 7.6875 C-58.60175225 19.963096 -98.03870851 37.56794263 -134.96484375 57.1796875 C-135.59803024 57.51476318 -136.23121674 57.84983887 -136.8835907 58.19506836 C-139.86437495 59.77624893 -142.82951817 61.37690556 -145.78100586 63.01269531 C-146.8097583 63.56795898 -147.83851074 64.12322266 -148.8984375 64.6953125 C-150.23914307 65.4380542 -150.23914307 65.4380542 -151.60693359 66.19580078 C-154 67 -154 67 -156.31884766 66.14404297 C-157.15101807 65.5777417 -157.15101807 65.5777417 -158 65 C-158 64.01 -158 63.02 -158 62 C-145.05952599 55.20999313 -132.09738333 48.48239445 -119 42 C-118.31534668 41.63519531 -117.63069336 41.27039063 -116.92529297 40.89453125 C-116.22678223 40.52714844 -115.52827148 40.15976562 -114.80859375 39.78125 C-114.17622803 39.44158203 -113.5438623 39.10191406 -112.89233398 38.75195312 C-111 38 -111 38 -107 38 C-107 37.34 -107 36.68 -107 36 C-103.27034861 33.96564469 -101.33094958 33 -97 33 C-97 32.34 -97 31.68 -97 31 C-95.88625 30.57589844 -94.7725 30.15179688 -93.625 29.71484375 C-85.9676048 26.7788608 -78.36330751 23.78397811 -70.875 20.4375 C-63.68234303 17.23285086 -56.38181877 14.43721356 -48.98681641 11.73828125 C-47.01603354 11.0059579 -45.06013972 10.24295494 -43.10546875 9.46875 C-29.38699313 4.07151365 -14.94784696 -1.34262098 0 0 Z " fill="#45F1EE" transform="translate(637,391)"/>
<path d="M0 0 C0.495 0.99 0.495 0.99 1 2 C0.34 2 -0.32 2 -1 2 C-1.268125 2.57363281 -1.53625 3.14726562 -1.8125 3.73828125 C-3.03775817 6.07191442 -4.4377556 8.06570172 -6 10.1875 C-18.76613445 28.31911124 -28.042467 48.11848572 -35.5 68.9375 C-43.58844202 91.49487006 -53.34734774 112.91206039 -67.140625 132.6328125 C-67.59469727 133.2839502 -68.04876953 133.93508789 -68.51660156 134.60595703 C-70 136 -70 136 -74 136 C-76.4532679 137.96819164 -76.4532679 137.96819164 -78.75 140.5 C-79.54921875 141.3353125 -80.3484375 142.170625 -81.171875 143.03125 C-81.77515625 143.6809375 -82.3784375 144.330625 -83 145 C-83 140.96380182 -81.50165531 139.94991822 -78.875 136.9375 C-75.30233153 132.6893739 -72.28116384 128.48417958 -69.55053711 123.66015625 C-68.02765008 121.04743745 -66.40963258 118.52629797 -64.75390625 115.99609375 C-60.83648527 109.8602381 -57.40356011 103.52691754 -54.0625 97.0625 C-53.75974152 96.47828278 -53.45698303 95.89406555 -53.14505005 95.29214478 C-47.71737659 84.78324509 -43.02872638 74.11795637 -39 63 C-38.76522949 62.35289062 -38.53045898 61.70578125 -38.28857422 61.0390625 C-37.24706591 58.14996263 -36.22222808 55.25506917 -35.19921875 52.359375 C-29.2547446 35.70710214 -20.84925753 21.91659386 -10.63671875 7.5546875 C-10.20061279 6.94093262 -9.76450684 6.32717773 -9.31518555 5.69482422 C-6.45459038 2.00849572 -4.71739268 0.6374855 0 0 Z " fill="#2DE1E7" transform="translate(604,445)"/>
<path d="M0 0 C0 6.74742227 -4.57771049 10.46690141 -9 15 C-9 10.72946073 -6.69874028 9.17101982 -4 6 C-4 5.34 -4 4.68 -4 4 C-26.1575857 10.64314953 -44.78953707 22.22569573 -61.60961914 37.95043945 C-66.54292451 42.55327635 -71.70224767 46.82550529 -77 51 C-77.6703125 51.53882813 -78.340625 52.07765625 -79.03125 52.6328125 C-82.61427285 55.38293969 -85.45673889 56.78868553 -90 57 C-90.66 56.67 -91.32 56.34 -92 56 C-90.97208233 45.92640686 -90.97208233 45.92640686 -88 42 C-83.96407105 39.00287213 -79.60020358 36.63785499 -75.1875 34.25 C-73.99833326 33.58645242 -72.81017082 32.92110162 -71.62304688 32.25390625 C-66.47064062 29.38207326 -61.28857296 26.61342125 -56 24 C-56.66 23.34 -57.32 22.68 -58 22 C-45.85146369 14.37341887 -31.5437278 10.44333044 -18.06982422 5.8034668 C-13.83535221 4.34468202 -9.61814394 2.86900686 -5.4375 1.26171875 C-2 0 -2 0 0 0 Z " fill="#1B8F9C" transform="translate(599,437)"/>
<path d="M0 0 C0.66 0 1.32 0 2 0 C1.42642613 7.19574495 -0.15423905 13.71158752 -2.1875 20.625 C-2.82739575 22.84841959 -3.46537503 25.07239152 -4.1015625 27.296875 C-4.42157227 28.41513672 -4.74158203 29.53339844 -5.07128906 30.68554688 C-6.48415408 35.72788533 -7.77177122 40.80031408 -9.0625 45.875 C-10.96726106 53.30138594 -13.08686357 60.60095677 -15.46899414 67.88647461 C-18.23884186 76.49641591 -20.60094661 85.21884016 -23 93.9375 C-26.12625028 105.295244 -29.29992905 116.62556573 -32.76171875 127.88671875 C-33.61320999 130.66799459 -34.4024414 133.45709484 -35.14453125 136.26953125 C-35.32258301 136.93484863 -35.50063477 137.60016602 -35.68408203 138.28564453 C-36.1472441 140.03541782 -36.59580828 141.78903797 -37.04296875 143.54296875 C-37.51669922 144.75919922 -37.51669922 144.75919922 -38 146 C-38.99 146.33 -39.98 146.66 -41 147 C-42.19272238 130.60006728 -34.90407568 113.4973313 -30.31640625 97.94140625 C-28.67726673 92.37850682 -27.09865649 86.80097157 -25.5546875 81.2109375 C-8.97562238 21.18717849 -8.97562238 21.18717849 -1.98046875 5.25 C-0.91880966 2.9049015 -0.91880966 2.9049015 0 0 Z " fill="#3EEFF3" transform="translate(299,398)"/>
<path d="M0 0 C0.99 0.495 0.99 0.495 2 1 C1.00987915 1.98226562 1.00987915 1.98226562 -0.00024414 2.984375 C-2.48296466 5.44990126 -4.96330192 7.91777834 -7.44213867 10.38720703 C-8.50892297 11.44900861 -9.57660853 12.50990558 -10.64526367 13.56982422 C-16.13771776 19.01854448 -21.55653336 24.47634106 -26.5847168 30.36425781 C-28.41262597 32.47690081 -30.36881993 34.43225646 -32.375 36.375 C-35.05210196 38.92180284 -35.05210196 38.92180284 -37 42 C-37.66 42 -38.32 42 -39 42 C-39.20625 42.66 -39.4125 43.32 -39.625 44 C-41.17347058 47.37848126 -43.13700828 50.00200579 -45.40234375 52.9296875 C-47.68892495 55.89273893 -49.83681193 58.94608743 -52 62 C-50.515 61.505 -50.515 61.505 -49 61 C-48.67 60.34 -48.34 59.68 -48 59 C-47.34 59 -46.68 59 -46 59 C-45.7525 58.4225 -45.505 57.845 -45.25 57.25 C-43.81700012 54.67060021 -42.21575324 52.93878408 -40 51 C-39.34 51 -38.68 51 -38 51 C-38 50.34 -38 49.68 -38 49 C-37.34 49 -36.68 49 -36 49 C-36 48.34 -36 47.68 -36 47 C-34.4609375 45.484375 -34.4609375 45.484375 -32.375 43.75 C-28.72639996 40.65323448 -25.34103014 37.42455589 -22 34 C-21.01 34.495 -21.01 34.495 -20 35 C-21.98 36.98 -23.96 38.96 -26 41 C-24.35 40.34 -22.7 39.68 -21 39 C-26.37289664 45.44747597 -32.01710598 51.46190839 -38.41015625 56.91015625 C-44.11852023 61.87849809 -49.41565185 67.26640738 -54.75463867 72.62426758 C-56.55862085 74.43360933 -58.36788665 76.23754319 -60.17773438 78.04101562 C-65.55687158 83.41811734 -70.88227085 88.77129513 -75.74584961 94.62915039 C-77 96 -77 96 -79 97 C-77.69966161 93.53319813 -76.18465408 90.45447576 -74.2421875 87.3046875 C-73.43322021 85.99141479 -73.43322021 85.99141479 -72.60791016 84.65161133 C-72.0360498 83.73532959 -71.46418945 82.81904785 -70.875 81.875 C-70.28895996 80.93229248 -69.70291992 79.98958496 -69.09912109 79.01831055 C-65.50943248 73.28836784 -61.8197362 67.72509783 -57.75 62.32421875 C-55.97434403 59.96592566 -54.29614569 57.55821907 -52.625 55.125 C-43.83771166 42.52322967 -34.05574394 30.60278147 -24 19 C-24 22.60573896 -24.81707462 23.41336566 -27 26.1875 C-27.556875 26.90292969 -28.11375 27.61835937 -28.6875 28.35546875 C-29.120625 28.89816406 -29.55375 29.44085937 -30 30 C-28.83463469 28.83463469 -27.66985297 27.6686807 -26.5078125 26.5 C-25.47119429 25.46875287 -24.42361957 24.44843978 -23.3671875 23.4375 C-19.98354666 20.18962826 -19.98354666 20.18962826 -18 16 C-16.1875 14.24609375 -16.1875 14.24609375 -14 12.4375 C-11.05040821 10.07789673 -11.05040821 10.07789673 -9 7 C-7.8553125 6.319375 -7.8553125 6.319375 -6.6875 5.625 C-4.01605453 4.00970739 -2.11790496 2.27478681 0 0 Z M-18 30 C-17.01 30.495 -17.01 30.495 -16 31 C-16.99 31.495 -16.99 31.495 -18 32 C-18 31.34 -18 30.68 -18 30 Z " fill="#12A1B1" transform="translate(201,632)"/>
<path d="M0 0 C0.33 0 0.66 0 1 0 C1.0093457 0.76441406 1.01869141 1.52882813 1.02832031 2.31640625 C1.45642282 34.41812162 1.45642282 34.41812162 17.0625 61.8125 C33.74638256 77.24792876 55.12038029 80.28849595 76.97973633 80.31884766 C78.53828946 80.32816959 80.09683769 80.33834154 81.65538025 80.34928894 C85.84454918 80.37634801 90.03368496 80.39166596 94.2229178 80.40471697 C98.61647948 80.42045418 103.00997448 80.44721004 107.40348816 80.4727478 C115.70453265 80.51934953 124.00558996 80.55618309 132.30669755 80.58942068 C141.76514347 80.62777434 151.22352211 80.67714936 160.68191111 80.72740483 C180.12122468 80.83044762 199.56057944 80.91979707 219 81 C218.67 81.66 218.34 82.32 218 83 C216.83406232 82.99861731 216.83406232 82.99861731 215.64457035 82.99720669 C196.75903159 82.97515284 177.87349539 82.95858912 158.98794651 82.94818783 C149.85515952 82.94302456 140.7223811 82.93598128 131.58959961 82.92456055 C123.63242126 82.91461465 115.67524912 82.9081468 107.71806473 82.90591151 C103.50214014 82.90460424 99.28623332 82.90151738 95.07031441 82.89426994 C91.10677816 82.88751121 87.14326711 82.88538274 83.17972565 82.88689232 C81.72077994 82.88661592 80.26183343 82.88460993 78.80289268 82.88079453 C76.81953405 82.87585964 74.83616208 82.87760189 72.85279846 82.87974548 C71.18389226 82.87836279 71.18389226 82.87836279 69.48127079 82.87695217 C67.05736694 82.71889437 67.05736694 82.71889437 66 84 C50.20662053 85.58193128 35.84393014 80.92315147 23 72 C22.505 71.01 22.505 71.01 22 70 C21.10667969 69.58492187 20.21335937 69.16984375 19.29296875 68.7421875 C15.54543644 66.7595073 13.06879391 64.2629346 10.3125 61.125 C9.84005859 60.60808594 9.36761719 60.09117187 8.88085938 59.55859375 C1.11463742 50.91009412 -1.39377791 42.37189021 -2 31 C-1.67 31 -1.34 31 -1 31 C-0.67 20.77 -0.34 10.54 0 0 Z " fill="#3FD0D4" transform="translate(603,498)"/>
<path d="M0 0 C-6.88666104 4.59110736 -16.24041655 5.32005951 -24.30859375 6.47265625 C-27.45637571 7.00281498 -27.45637571 7.00281498 -32 9 C-28.37 9 -24.74 9 -21 9 C-21 9.33 -21 9.66 -21 10 C-25.15949717 10.99988003 -29.1871265 11.15730541 -33.44213867 11.17358398 C-34.54103172 11.1836145 -34.54103172 11.1836145 -35.66212463 11.19384766 C-37.24931898 11.2078603 -38.83653303 11.21976629 -40.42375755 11.22979546 C-42.95374397 11.24632752 -45.48358907 11.26957829 -48.01350403 11.29469299 C-55.2061137 11.36506958 -62.39878607 11.42498391 -69.59155273 11.47680664 C-74.00003226 11.50904154 -78.40835547 11.55043425 -82.8167057 11.59700203 C-84.47924223 11.61277875 -86.14181469 11.62520876 -87.80440331 11.63390923 C-97.26740335 11.68407669 -106.54104089 12.09792615 -115.93389416 13.30786037 C-120.34646934 13.87077641 -124.56468632 14.09072867 -129 14 C-128.28515625 12.07421875 -128.28515625 12.07421875 -127 10 C-124.93359375 9.20703125 -124.93359375 9.20703125 -122.4375 8.8125 C-121.63183594 8.67457031 -120.82617188 8.53664063 -119.99609375 8.39453125 C-118.51302734 8.19923828 -118.51302734 8.19923828 -117 8 C-115.73744385 7.82597656 -114.4748877 7.65195312 -113.17407227 7.47265625 C-106.85918102 6.77974107 -100.56198512 6.95332766 -94.21875 7.04296875 C-92.87903749 7.05504522 -91.53931479 7.06603297 -90.19958496 7.07600403 C-84.56887659 7.11813787 -78.93839144 7.16471269 -73.30810547 7.24682617 C-56.16245568 7.48878181 -39.7018616 6.85968265 -22.80249023 3.53311157 C-18.6916509 2.75111562 -14.55979066 2.10834337 -10.42590332 1.46086121 C-2.45519989 -0.05337391 -2.45519989 -0.05337391 0 0 Z " fill="#146477" transform="translate(423,644)"/>
<path d="M0 0 C1.82480429 5.25023543 -0.73020532 9.22756823 -3 14 C-5.00750779 17.78208544 -7.16708074 21.45700509 -9.375 25.125 C-9.92671875 26.06214844 -10.4784375 26.99929688 -11.046875 27.96484375 C-13.62384381 32.29003787 -16.27638264 36.55417127 -19.1640625 40.6796875 C-19.61475098 41.32405762 -20.06543945 41.96842773 -20.52978516 42.63232422 C-22 44 -22 44 -26 44 C-28.4532679 45.96819164 -28.4532679 45.96819164 -30.75 48.5 C-31.54921875 49.3353125 -32.3484375 50.170625 -33.171875 51.03125 C-33.77515625 51.6809375 -34.3784375 52.330625 -35 53 C-35 48.96380182 -33.50165531 47.94991822 -30.875 44.9375 C-27.25980933 40.63881235 -24.23044535 36.37295775 -21.44921875 31.50390625 C-19.95065101 28.91473665 -18.33369551 26.43504605 -16.6875 23.9375 C-11.95454751 16.57277124 -8.01694391 8.76973505 -4 1 C-3.01 1 -2.02 1 -1 1 C-0.67 0.67 -0.34 0.34 0 0 Z " fill="#23CFDB" transform="translate(556,537)"/>
<path d="M0 0 C1.83959958 2.66077662 2.0426439 3.76102702 1.46435547 7.00170898 C1.10229004 8.15485596 0.74022461 9.30800293 0.3671875 10.49609375 C0.1740799 11.12548355 -0.01902771 11.75487335 -0.21798706 12.40333557 C-0.83997858 14.41927813 -1.48201354 16.4281673 -2.125 18.4375 C-2.5352038 19.75413757 -2.944071 21.07119234 -3.3515625 22.38867188 C-4.16003352 24.99499855 -4.976657 27.59853252 -5.80078125 30.19995117 C-7.26929958 34.85334854 -8.69946898 39.51800635 -10.12548828 44.18457031 C-11.35554916 48.14466579 -12.66876756 52.07286431 -14 56 C-14.66 56 -15.32 56 -16 56 C-16.65902893 46.9383522 -14.30165551 38.67294803 -12 30 C-11.54947266 28.27668457 -11.54947266 28.27668457 -11.08984375 26.51855469 C-10.08099904 22.69384635 -9.04455566 18.87759905 -8 15.0625 C-7.66806641 13.81106201 -7.33613281 12.55962402 -6.99414062 11.27026367 C-6.50204102 9.514198 -6.50204102 9.514198 -6 7.72265625 C-5.71125 6.66828369 -5.4225 5.61391113 -5.125 4.52758789 C-4 2 -4 2 -1.875 0.64233398 C-0.946875 0.32437866 -0.946875 0.32437866 0 0 Z " fill="#2DE6F1" transform="translate(274,489)"/>
<path d="M0 0 C0.66 0.33 1.32 0.66 2 1 C-0.16343185 3.1907786 -2.33061964 5.37762406 -4.5 7.5625 C-5.10070312 8.17158203 -5.70140625 8.78066406 -6.3203125 9.40820312 C-9.33062515 12.43452808 -12.37100173 15.35684933 -15.62109375 18.125 C-21.27234352 23.00525099 -26.48710831 28.33811644 -31.75463867 33.62426758 C-33.55862085 35.43360933 -35.36788665 37.23754319 -37.17773438 39.04101562 C-42.55687158 44.41811734 -47.88227085 49.77129513 -52.74584961 55.62915039 C-54 57 -54 57 -56 58 C-54.68178385 54.47142973 -53.12242674 51.3622148 -51.13671875 48.1640625 C-50.57919922 47.26429688 -50.02167969 46.36453125 -49.44726562 45.4375 C-48.86654297 44.509375 -48.28582031 43.58125 -47.6875 42.625 C-47.11837891 41.70460938 -46.54925781 40.78421875 -45.96289062 39.8359375 C-42.80372217 34.75805479 -39.53925326 29.82082151 -36 25 C-35 28 -35 28 -35.9375 30.1875 C-36.4634375 31.0846875 -36.4634375 31.0846875 -37 32 C-36.113125 31.236875 -35.22625 30.47375 -34.3125 29.6875 C-32.49385484 28.12261928 -30.79661285 26.88640898 -28.6940918 25.7121582 C-25.72727967 23.82667987 -23.54324551 21.73740773 -21.09375 19.21875 C-19.73056641 17.83236328 -19.73056641 17.83236328 -18.33984375 16.41796875 C-17.39262511 15.44590075 -16.44601548 14.47323895 -15.5 13.5 C-13.64126059 11.58777169 -11.77599291 9.68281832 -9.90625 7.78125 C-9.08447266 6.93626953 -8.26269531 6.09128906 -7.41601562 5.22070312 C-5.05120639 3.04706683 -2.88190498 1.41545965 0 0 Z " fill="#1198AE" transform="translate(178,671)"/>
<path d="M0 0 C0 0.33 0 0.66 0 1 C-1.08547119 1.2333606 -1.08547119 1.2333606 -2.19287109 1.47143555 C-19.53129546 5.17434 -19.53129546 5.17434 -36.6875 9.625 C-37.74590088 9.92531128 -37.74590088 9.92531128 -38.82568359 10.23168945 C-41.59961313 11.02243739 -44.37195986 11.81855664 -47.14306641 12.61914062 C-55.25674358 14.93261273 -62.53834091 16.87132845 -71 15 C-59.74062019 7.49374679 -42.84670549 5.6247156 -29.85351562 2.65478516 C-27.39336331 2.09026355 -24.93879137 1.50673514 -22.484375 0.91796875 C-14.68744984 -0.83874587 -7.91503811 -1.22336716 0 0 Z " fill="#34EAE6" transform="translate(698,376)"/>
<path d="M0 0 C0.33 0 0.66 0 1 0 C1.0093457 0.76441406 1.01869141 1.52882813 1.02832031 2.31640625 C1.39577605 34.76094071 1.39577605 34.76094071 17.625 62.0625 C20.63122634 64.85803356 23.70066347 67.55210516 27 70 C20.55538595 69.88491761 17.52458496 68.41527006 12.88671875 63.96875 C3.32651699 53.9928873 -1.25742144 44.92974955 -2 31 C-1.67 31 -1.34 31 -1 31 C-0.67 20.77 -0.34 10.54 0 0 Z " fill="#51E7EC" transform="translate(603,498)"/>
<path d="M0 0 C0 6.74742227 -4.57771049 10.46690141 -9 15 C-9 10.72946073 -6.69874028 9.17101982 -4 6 C-4 5.34 -4 4.68 -4 4 C-11.65947058 6.34614414 -18.75947788 9.1746883 -25.89453125 12.828125 C-29.44527033 14.16802654 -32.23550536 14.20782656 -36 14 C-36 14.66 -36 15.32 -36 16 C-41.75 19 -41.75 19 -44 19 C-44 19.66 -44 20.32 -44 21 C-45.32 21 -46.64 21 -48 21 C-48 21.66 -48 22.32 -48 23 C-54.625 24.25 -54.625 24.25 -58 22 C-45.85146369 14.37341887 -31.5437278 10.44333044 -18.06982422 5.8034668 C-13.83535221 4.34468202 -9.61814394 2.86900686 -5.4375 1.26171875 C-2 0 -2 0 0 0 Z " fill="#18636D" transform="translate(599,437)"/>
<path d="M0 0 C1.61882584 0.00666183 1.61882584 0.00666183 3.27035522 0.01345825 C5.10202744 0.01368484 5.10202744 0.01368484 6.97070312 0.01391602 C8.30805625 0.02413001 9.64540772 0.03456201 10.98275757 0.04519653 C12.34753208 0.04892623 13.71230926 0.05177341 15.0770874 0.05377197 C18.6709023 0.0614119 22.2645558 0.08106331 25.85830688 0.10317993 C29.52476823 0.12363072 33.19125564 0.13277204 36.85775757 0.14285278 C44.05314369 0.164309 51.24839677 0.19844911 58.44369507 0.24050903 C58.44369507 0.57050903 58.44369507 0.90050903 58.44369507 1.24050903 C49.96564483 1.9929192 41.63678216 2.35854596 33.13143921 2.11550903 C29.19540381 2.04867858 26.89359502 2.51515442 23.44369507 4.24050903 C21.09701538 4.7270813 21.09701538 4.7270813 18.52182007 5.05691528 C17.57822632 5.18130981 16.63463257 5.30570435 15.66244507 5.43386841 C14.68275757 5.55568481 13.70307007 5.67750122 12.69369507 5.80300903 C11.72947632 5.92869263 10.76525757 6.05437622 9.77182007 6.18386841 C6.99670879 6.54395418 4.22055163 6.89416708 1.44369507 7.24050903 C0.62320679 7.3434729 -0.19728149 7.44643677 -1.04263306 7.55252075 C-2.88039882 7.78284866 -4.71833064 8.01185109 -6.55630493 8.24050903 C-5.89630493 7.58050903 -5.23630493 6.92050903 -4.55630493 6.24050903 C-3.23630493 6.24050903 -1.91630493 6.24050903 -0.55630493 6.24050903 C-0.22630493 4.92050903 0.10369507 3.60050903 0.44369507 2.24050903 C-1.20630493 2.24050903 -2.85630493 2.24050903 -4.55630493 2.24050903 C-2.55630493 0.24050903 -2.55630493 0.24050903 0 0 Z " fill="#3EF5F5" transform="translate(668.5563049316406,301.7594909667969)"/>
<path d="M0 0 C-1.31345382 2.62690764 -2.73051033 3.08100461 -5.3125 4.4375 C-7.75991103 5.72795309 -9.96845752 6.97584585 -12.16796875 8.66015625 C-14 10 -14 10 -16 10 C-16 9.34 -16 8.68 -16 8 C-14.68 7.67 -13.36 7.34 -12 7 C-12.495 6.01 -12.495 6.01 -13 5 C-38.32880146 12.10511737 -62.70115931 20.88995027 -87.04345703 30.79833984 C-88.01911621 31.1948877 -88.99477539 31.59143555 -90 32 C-90.89187012 32.40299316 -91.78374023 32.80598633 -92.70263672 33.22119141 C-95 34 -95 34 -98 33 C-72.98275436 22.0641455 -47.67344103 12.26740475 -21.41503906 4.69921875 C-19.15432615 4.04468157 -16.90077342 3.37021642 -14.6484375 2.6875 C-4.88402987 -0.22362774 -4.88402987 -0.22362774 0 0 Z " fill="#1C7680" transform="translate(651,408)"/>
<path d="M0 0 C0.33 0.66 0.66 1.32 1 2 C0.1300847 4.56817999 -0.80011915 7.051203 -1.8125 9.5625 C-4.06980999 15.33707409 -5.90633916 20.87549929 -7 27 C-7.33 27 -7.66 27 -8 27 C-8 24.69 -8 22.38 -8 20 C-8.66 20 -9.32 20 -10 20 C-10.3403125 21.1446875 -10.3403125 21.1446875 -10.6875 22.3125 C-12.97581154 28.74156575 -15.91511211 34.91591555 -19 41 C-19 39.68 -19 38.36 -19 37 C-19.66 37 -20.32 37 -21 37 C-19.22500479 23.39170337 -8.18006511 10.69700821 0 0 Z " fill="#15BFC7" transform="translate(615,458)"/>
<path d="M0 0 C0.66 0 1.32 0 2 0 C1.42161423 7.5269381 -0.3281303 14.39042043 -2.4375 21.625 C-2.90639648 23.2646875 -2.90639648 23.2646875 -3.38476562 24.9375 C-4.25022128 27.96019079 -5.1242492 30.98027955 -6 34 C-6.66892772 36.33269608 -7.33465547 38.66627897 -8 41 C-8.99 40.01 -9.98 39.02 -11 38 C-11.66 38.99 -12.32 39.98 -13 41 C-12.36704514 35.3561525 -10.99150488 30.2104583 -9.25 24.8125 C-8.98485596 23.98041016 -8.71971191 23.14832031 -8.4465332 22.29101562 C-6.56115873 16.47669865 -4.4378919 10.84878931 -1.98046875 5.25 C-0.91880966 2.9049015 -0.91880966 2.9049015 0 0 Z " fill="#28F0EF" transform="translate(299,398)"/>
<path d="M0 0 C0.99 0.495 0.99 0.495 2 1 C1.01 1.495 1.01 1.495 0 2 C0 1.34 0 0.68 0 0 Z M-4 4 C-3.34 4.33 -2.68 4.66 -2 5 C-6.31686631 9.36639351 -10.64032833 13.72610861 -14.9699707 18.07983398 C-16.44119373 19.56109949 -17.91061477 21.04415708 -19.37817383 22.52905273 C-21.49086109 24.66606487 -23.60999632 26.79649724 -25.73046875 28.92578125 C-26.38274948 29.58838455 -27.03503021 30.25098785 -27.70707703 30.93367004 C-32.08802892 35.31568889 -36.41014208 38.30858693 -42 41 C-40.888686 35.44343 -38.52369063 29.43724006 -35 25 C-31.8125 24.1875 -31.8125 24.1875 -29 24 C-30.61268692 26.71224618 -32.24901874 29.37352812 -34 32 C-33.01 31.67 -32.02 31.34 -31 31 C-30.67 30.34 -30.34 29.68 -30 29 C-29.34 29 -28.68 29 -28 29 C-27.7525 28.4225 -27.505 27.845 -27.25 27.25 C-25.81700012 24.67060021 -24.21575324 22.93878408 -22 21 C-21.34 21 -20.68 21 -20 21 C-20 20.34 -20 19.68 -20 19 C-19.34 19 -18.68 19 -18 19 C-18 18.34 -18 17.68 -18 17 C-16.4609375 15.484375 -16.4609375 15.484375 -14.375 13.75 C-10.72639996 10.65323448 -7.34103014 7.42455589 -4 4 Z " fill="#0FA9C1" transform="translate(183,662)"/>
<path d="M0 0 C-0.85335937 0.41507812 -1.70671875 0.83015625 -2.5859375 1.2578125 C-11.70000715 5.73376129 -20.6789282 10.4475036 -29.625 15.25 C-30.75083496 15.85215332 -31.87666992 16.45430664 -33.03662109 17.07470703 C-39.32248152 20.42262931 -39.32248152 20.42262931 -45.34765625 24.20703125 C-48.38637384 26.26118644 -51.51462674 27.83482983 -54.8125 29.4375 C-59.74780229 31.84350064 -64.54518266 34.38328576 -69.23046875 37.25 C-71 38 -71 38 -74 37 C-59.32876324 28.74581862 -44.65015142 20.50619945 -29.828125 12.52490234 C-27.84155847 11.45376159 -25.85738873 10.37816952 -23.875 9.29931641 C-20.71498361 7.58268736 -17.54628174 5.88320976 -14.375 4.1875 C-13.39644043 3.65302246 -12.41788086 3.11854492 -11.40966797 2.56787109 C-10.49846191 2.08527832 -9.58725586 1.60268555 -8.6484375 1.10546875 C-7.84583496 0.67387451 -7.04323242 0.24228027 -6.21630859 -0.20239258 C-3.67234703 -1.11791609 -2.49925083 -0.92338787 0 0 Z " fill="#53E1DE" transform="translate(513,405)"/>
<path d="M0 0 C0.66 0.33 1.32 0.66 2 1 C1.01 2.32 0.02 3.64 -1 5 C-0.01 5.33 0.98 5.66 2 6 C1.24976563 6.42410156 0.49953125 6.84820313 -0.2734375 7.28515625 C-6.01994746 10.57818148 -11.57229887 13.98006814 -16.953125 17.83984375 C-22.01916944 21.43153936 -27.17155693 24.89833263 -32.31274414 28.38134766 C-36.33405774 31.11962972 -40.25867345 33.88096306 -44 37 C-44.66 36.67 -45.32 36.34 -46 36 C-44.3553892 34.64434885 -42.70923083 33.29057513 -41.0625 31.9375 C-40.14597656 31.18339844 -39.22945313 30.42929687 -38.28515625 29.65234375 C-29.84545789 22.78994834 -21.1260826 16.27519106 -12.46484375 9.69726562 C-11.57410156 9.01986328 -10.68335938 8.34246094 -9.765625 7.64453125 C-8.96930664 7.03971924 -8.17298828 6.43490723 -7.35253906 5.81176758 C-4.8765296 3.90491139 -2.43463442 1.95931389 0 0 Z " fill="#154056" transform="translate(305,588)"/>
<path d="M0 0 C0 3 0 3 -1.86022949 5.22099304 C-2.73070923 6.08481094 -3.60118896 6.94862885 -4.49804688 7.83862305 C-5.21493431 8.5561676 -5.21493431 8.5561676 -5.94630432 9.28820801 C-7.53011328 10.86992448 -9.12428875 12.44074692 -10.71875 14.01171875 C-11.81799394 15.10536839 -12.91657805 16.19968161 -14.01452637 17.29463196 C-16.90796184 20.1766057 -19.8102929 23.04945801 -22.71453857 25.92053223 C-25.67577181 28.85109327 -28.62854473 31.79015107 -31.58203125 34.72851562 C-37.37975242 40.49404922 -43.18689419 46.24997854 -49 52 C-49.66 51.67 -50.32 51.34 -51 51 C-41.53991939 40.75040446 -31.85376191 30.74475149 -22 20.875 C-21.46456573 20.33706818 -20.92913147 19.79913635 -20.37747192 19.24490356 C-14.91006613 13.75656309 -9.4310278 8.3302222 -3.5234375 3.30908203 C-2.30139887 2.2589905 -1.13931353 1.13931353 0 0 Z " fill="#0C1E26" transform="translate(174,677)"/>
<path d="M0 0 C-0.51159668 0.30591064 -1.02319336 0.61182129 -1.55029297 0.92700195 C-28.99649782 17.33078738 -28.99649782 17.33078738 -55.90625 34.59375 C-56.54916992 35.0170459 -57.19208984 35.4403418 -57.85449219 35.87646484 C-59.0940176 36.69291679 -60.32926171 37.51591569 -61.55957031 38.34619141 C-63.00118858 39.29227966 -64.49688126 40.15502647 -66 41 C-66.66 40.67 -67.32 40.34 -68 40 C-60.68131597 34.53622844 -53.21110718 29.47871571 -45.4375 24.6875 C-44.39754883 24.04232422 -43.35759766 23.39714844 -42.28613281 22.73242188 C-39.19388038 20.81649758 -36.09766682 18.90715509 -33 17 C-32.12166504 16.45811035 -31.24333008 15.9162207 -30.33837891 15.35791016 C-25.88209916 12.61064754 -21.41592049 9.88081184 -16.93505859 7.17382812 C-15.06118927 6.03711809 -13.19628393 4.88676668 -11.33203125 3.734375 C-10.25308594 3.07953125 -9.17414063 2.4246875 -8.0625 1.75 C-7.14597656 1.18796875 -6.22945313 0.6259375 -5.28515625 0.046875 C-3 -1 -3 -1 0 0 Z " fill="#4CE1E1" transform="translate(439,445)"/>
<path d="M0 0 C-2.36976152 2.63771527 -4.84327619 4.15360491 -7.96484375 5.8125 C-8.92970703 6.33070313 -9.89457031 6.84890625 -10.88867188 7.3828125 C-11.89478516 7.91648437 -12.90089844 8.45015625 -13.9375 9 C-15.92735498 10.05954979 -17.915697 11.12194697 -19.90234375 12.1875 C-20.78398193 12.65542969 -21.66562012 13.12335938 -22.57397461 13.60546875 C-25.03598064 14.93363879 -25.03598064 14.93363879 -27.13110352 16.73828125 C-27.74783936 17.15464844 -28.3645752 17.57101562 -29 18 C-35 16 -35 16 -37 15 C-30.95878334 11.55443917 -24.99082505 8.46474648 -18.48046875 6.01171875 C-15.79952201 4.91823024 -13.30360785 3.61268759 -10.75 2.25 C-7.00095099 0.31634223 -4.29675486 -0.56536248 0 0 Z " fill="#133038" transform="translate(544,460)"/>
<path d="M0 0 C-1.134375 0.53109375 -2.26875 1.0621875 -3.4375 1.609375 C-4.95835806 2.32286397 -6.47918999 3.03640862 -8 3.75 C-9.11568359 4.27207031 -9.11568359 4.27207031 -10.25390625 4.8046875 C-26.50081082 12.43366878 -41.56795453 21.02310671 -56.08642578 31.60742188 C-59.04291107 33.75896463 -62.02225155 35.87801541 -65 38 C-65.66 37.67 -66.32 37.34 -67 37 C-50.12298985 23.52224631 -32.42325657 12.47939767 -13 3 C-12.16098145 2.58234375 -11.32196289 2.1646875 -10.45751953 1.734375 C-9.66845215 1.35796875 -8.87938477 0.9815625 -8.06640625 0.59375 C-7.37619385 0.26052734 -6.68598145 -0.07269531 -5.97485352 -0.41601562 C-3.61433089 -1.1140463 -2.2984556 -0.78940106 0 0 Z " fill="#50DFDF" transform="translate(617,317)"/>
<path d="M0 0 C0 3 0 3 -1.54737854 4.90141296 C-2.27239059 5.61674698 -2.99740265 6.33208099 -3.74438477 7.0690918 C-4.56266251 7.88391525 -5.38094025 8.69873871 -6.22401428 9.53825378 C-7.12075363 10.41637222 -8.01749298 11.29449066 -8.94140625 12.19921875 C-10.3408659 13.58856566 -11.74032308 14.97791508 -13.13963985 16.36740589 C-15.10910453 18.31929765 -17.08536867 20.264237 -19.06158447 22.20928955 C-22.4926179 25.58842007 -25.91429459 28.97700953 -29.33396912 32.36763 C-31.15386501 34.17069497 -32.97684361 35.97065549 -34.80335999 37.76701355 C-39.24818643 42.16022379 -43.51808298 46.60093083 -47.52281189 51.40144348 C-49 53 -49 53 -52 55 C-50.68212697 52.10470278 -49.24349036 49.96973948 -47.05078125 47.671875 C-46.4573291 47.04482666 -45.86387695 46.41777832 -45.25244141 45.77172852 C-44.61226074 45.10455811 -43.97208008 44.4373877 -43.3125 43.75 C-41.95163743 42.31658233 -40.59096588 40.88298328 -39.23046875 39.44921875 C-38.53099121 38.71493652 -37.83151367 37.9806543 -37.11083984 37.22412109 C-34.40301446 34.37097638 -31.72143189 31.4939279 -29.04003906 28.6159668 C-21.23524963 20.24701168 -13.44884829 11.9379078 -4.7265625 4.5078125 C-3.07703058 3.06727105 -1.52920426 1.56673075 0 0 Z " fill="#21A5B1" transform="translate(236,589)"/>
<path d="M0 0 C0.33 0.66 0.66 1.32 1 2 C2.65 1.67 4.3 1.34 6 1 C5 3 5 3 2 5 C1.14818127 6.95634245 1.14818127 6.95634245 0.6484375 9.24609375 C0.43703125 10.08333984 0.225625 10.92058594 0.0078125 11.78320312 C-0.20101563 12.65912109 -0.40984375 13.53503906 -0.625 14.4375 C-1.05412733 16.16550379 -1.48379258 17.89337411 -1.9140625 19.62109375 C-2.0992041 20.3886499 -2.2843457 21.15620605 -2.47509766 21.94702148 C-2.91090712 23.65154325 -3.44364361 25.33093083 -4 27 C-4.66 27 -5.32 27 -6 27 C-6.33 27.66 -6.66 28.32 -7 29 C-9.11385103 25.82922346 -9.25034332 24.91049604 -8.6171875 21.296875 C-7.20603066 16.04522801 -5.04409782 11.03064572 -3 6 C-2.45666016 4.59621094 -2.45666016 4.59621094 -1.90234375 3.1640625 C-1 1 -1 1 0 0 Z " fill="#28D1DD" transform="translate(508,492)"/>
<path d="M0 0 C29.04 0 58.08 0 88 0 C85.8614515 2.1385485 84.86724686 2.42655063 82 3 C82 2.34 82 1.68 82 1 C42.895 1.495 42.895 1.495 3 2 C2.34 3.98 1.68 5.96 1 8 C-0.625 9.875 -0.625 9.875 -2 11 C-1.125 3.375 -1.125 3.375 0 0 Z " fill="#4AF2EB" transform="translate(215,395)"/>
<path d="M0 0 C-2.76806392 3.44062564 -4.83647239 5.28058649 -9.1796875 5.92578125 C-10.74276031 6.07734396 -12.30822984 6.20573323 -13.875 6.3125 C-14.65230469 6.38533203 -15.42960937 6.45816406 -16.23046875 6.53320312 C-20.83222845 6.93924075 -25.38218166 7.067728 -30 7 C-29.28515625 5.07421875 -29.28515625 5.07421875 -28 3 C-25.93359375 2.20703125 -25.93359375 2.20703125 -23.4375 1.8125 C-22.09171875 1.59400391 -22.09171875 1.59400391 -20.71875 1.37109375 C-19.8215625 1.24863281 -18.924375 1.12617187 -18 1 C-17.2265625 0.88785156 -16.453125 0.77570312 -15.65625 0.66015625 C-10.4165833 -0.01325162 -5.27917278 -0.08379639 0 0 Z " fill="#12596D" transform="translate(324,651)"/>
<path d="M0 0 C-0.66531738 0.2266333 -1.33063477 0.4532666 -2.01611328 0.68676758 C-5.05391811 1.72431837 -8.08945851 2.76834687 -11.125 3.8125 C-12.17171875 4.16892578 -13.2184375 4.52535156 -14.296875 4.89257812 C-19.39671558 6.65170035 -24.20520748 8.50641191 -29 11 C-30.44535964 11.45965501 -31.90453657 11.87840274 -33.375 12.25 C-38.96727646 13.82468972 -44.13689409 16.18788747 -49.37841797 18.66308594 C-53.06360335 20.35473561 -55.92421335 21.41782726 -60 21 C-57.45219786 18.45219786 -54.61852475 17.49355445 -51.32421875 16.20703125 C-50.65068359 15.93981766 -49.97714844 15.67260406 -49.28320312 15.39729309 C-47.08715908 14.52911634 -44.88775637 13.66994081 -42.6875 12.8125 C-41.94368073 12.52131287 -41.19986145 12.23012573 -40.4335022 11.93011475 C-31.24175703 8.33651207 -22.0315247 4.80661446 -12.6875 1.625 C-11.84856201 1.33343018 -11.00962402 1.04186035 -10.14526367 0.74145508 C-6.33232219 -0.51508701 -3.83804585 -1.22276852 0 0 Z " fill="#50E1DD" transform="translate(627,357)"/>
<path d="M0 0 C25.74 0 51.48 0 78 0 C78 0.33 78 0.66 78 1 C77.01717041 1.02505615 76.03434082 1.0501123 75.02172852 1.07592773 C71.33705031 1.17088119 67.65252255 1.27087838 63.96801758 1.37231445 C62.38048855 1.41533386 60.792923 1.45702837 59.20532227 1.49731445 C48.87536616 1.70335491 48.87536616 1.70335491 38.58984375 2.59765625 C35 3 35 3 32 2 C29.48631945 1.9153183 27.00130626 1.88398115 24.48828125 1.90234375 C23.39594429 1.90446617 23.39594429 1.90446617 22.28153992 1.90663147 C19.95848461 1.91222341 17.63552612 1.92477438 15.3125 1.9375 C13.73632952 1.94251604 12.16015752 1.94707877 10.58398438 1.95117188 C6.72261902 1.9621902 2.86132592 1.97944926 -1 2 C-0.67 1.34 -0.34 0.68 0 0 Z " fill="#36F6FC" transform="translate(670,580)"/>
<path d="M0 0 C0.33 0.66 0.66 1.32 1 2 C0.34 2 -0.32 2 -1 2 C-1.26039063 2.55816406 -1.52078125 3.11632812 -1.7890625 3.69140625 C-5.04073218 9.89055715 -9.52910172 15.63492206 -14 21 C-14.33 20.01 -14.66 19.02 -15 18 C-15.99 18.66 -16.98 19.32 -18 20 C-16.52284877 15.70355476 -14.33919945 12.44195275 -11.625 8.8125 C-10.85414063 7.76707031 -10.08328125 6.72164063 -9.2890625 5.64453125 C-6.35661023 2.25669816 -4.15951581 1.38650527 0 0 Z " fill="#20D4DD" transform="translate(604,445)"/>
<path d="M0 0 C0 3 0 3 -2.5703125 5.91088867 C-3.74753841 7.08763873 -4.93304138 8.25614424 -6.125 9.41796875 C-6.74648926 10.03521317 -7.36797852 10.65245758 -8.00830078 11.28840637 C-9.99861833 13.26190579 -11.99910395 15.22473225 -14 17.1875 C-15.34964009 18.52209737 -16.69860736 19.85737551 -18.046875 21.19335938 C-21.35682227 24.47019575 -24.67592738 27.73749597 -28 31 C-28.99 30.67 -29.98 30.34 -31 30 C-27.23125542 26.20649113 -23.4592037 22.41631315 -19.68408203 18.62915039 C-18.40094596 17.34099321 -17.11870985 16.05193893 -15.83740234 14.76196289 C-13.99293497 12.90533262 -12.1452292 11.05197857 -10.296875 9.19921875 C-9.7269281 8.62411057 -9.1569812 8.04900238 -8.56976318 7.45646667 C-5.8478557 4.73417865 -3.17737805 2.20050331 0 0 Z " fill="#0C2027" transform="translate(224,576)"/>
<path d="M0 0 C0 6.74742227 -4.57771049 10.46690141 -9 15 C-9 10.72946073 -6.69874028 9.17101982 -4 6 C-4 5.34 -4 4.68 -4 4 C-11.79910533 6.38891515 -19.07038655 9.30463986 -26.3828125 12.92578125 C-27.67832031 13.45751953 -27.67832031 13.45751953 -29 14 C-29.66 13.67 -30.32 13.34 -31 13 C-29.71086513 12.32845067 -28.41859796 11.66291141 -27.125 11 C-26.40570312 10.62875 -25.68640625 10.2575 -24.9453125 9.875 C-23 9 -23 9 -21 9 C-21 8.34 -21 7.68 -21 7 C-17.87694627 5.82807565 -14.75125261 4.66336124 -11.625 3.5 C-10.73554687 3.16613281 -9.84609375 2.83226562 -8.9296875 2.48828125 C-8.07890625 2.17246094 -7.228125 1.85664063 -6.3515625 1.53125 C-5.17327881 1.09135742 -5.17327881 1.09135742 -3.97119141 0.64257812 C-2 0 -2 0 0 0 Z " fill="#1BB4C0" transform="translate(599,437)"/>
<path d="M0 0 C12.87 0 25.74 0 39 0 C37.02 0.99 37.02 0.99 35 2 C42.26 2 49.52 2 57 2 C57 2.33 57 2.66 57 3 C53.6294255 3.75636067 50.51077678 4.12811063 47.05859375 4.1328125 C45.68864258 4.13474609 45.68864258 4.13474609 44.29101562 4.13671875 C43.34935547 4.13285156 42.40769531 4.12898437 41.4375 4.125 C40.01920898 4.13080078 40.01920898 4.13080078 38.57226562 4.13671875 C37.66025391 4.13542969 36.74824219 4.13414062 35.80859375 4.1328125 C34.56807251 4.13112061 34.56807251 4.13112061 33.30249023 4.12939453 C31.06500315 4.00365302 29.16463308 3.54597007 27 3 C25.68 3 24.36 3 23 3 C23 2.34 23 1.68 23 1 C15.41 1 7.82 1 0 1 C0 0.67 0 0.34 0 0 Z " fill="#135568" transform="translate(345,651)"/>
<path d="M0 0 C0.66 0.33 1.32 0.66 2 1 C0.4840625 2.2375 0.4840625 2.2375 -1.0625 3.5 C-4.39260744 6.35057197 -7.1923532 9.4363733 -10.03125 12.765625 C-13.79727273 17.0397619 -17.74807739 21.20669427 -22 25 C-22.66 25 -23.32 25 -24 25 C-23.42069585 21.80085767 -22.54605069 20.1753615 -20.234375 17.90625 C-19.67363281 17.35066406 -19.11289062 16.79507812 -18.53515625 16.22265625 C-17.94605469 15.65417969 -17.35695313 15.08570313 -16.75 14.5 C-16.17636719 13.93152344 -15.60273437 13.36304688 -15.01171875 12.77734375 C-12.46848671 10.28045763 -9.93006323 7.94420345 -7.140625 5.71875 C-4.91402029 4.17591006 -4.91402029 4.17591006 -4 2 C-2.0625 0.8125 -2.0625 0.8125 0 0 Z " fill="#13525B" transform="translate(629,421)"/>
<path d="M0 0 C1.52566004 3.95687313 0.4438226 6.89644544 -0.6875 10.875 C-0.86958008 11.5254126 -1.05166016 12.1758252 -1.23925781 12.84594727 C-1.81674937 14.90010355 -2.40786978 16.95002101 -3 19 C-3.38747266 20.36567174 -3.77420518 21.73155371 -4.16015625 23.09765625 C-5.09776257 26.40112225 -6.04454848 29.70165936 -7 33 C-7.99 32.01 -8.98 31.02 -10 30 C-10.66 30.99 -11.32 31.98 -12 33 C-11.56744475 27.59305933 -10.41778487 24.24633878 -7 20 C-6.34 20 -5.68 20 -5 20 C-4.89042969 19.39414062 -4.78085937 18.78828125 -4.66796875 18.1640625 C-3.49558943 11.96856205 -1.91661553 6.00539533 0 0 Z " fill="#33EAEB" transform="translate(298,406)"/>
<path d="M0 0 C0.66 0.33 1.32 0.66 2 1 C1.00987915 1.98226562 1.00987915 1.98226562 -0.00024414 2.984375 C-2.48296466 5.44990126 -4.96330192 7.91777834 -7.44213867 10.38720703 C-8.50892297 11.44900861 -9.57660853 12.50990558 -10.64526367 13.56982422 C-16.65044195 19.52718609 -22.56551301 25.50678471 -28 32 C-28 27.8901904 -26.35798175 26.93067665 -23.5625 24 C-20.0758453 20.43108336 -20.0758453 20.43108336 -18 16 C-16.1875 14.24609375 -16.1875 14.24609375 -14 12.4375 C-11.05040821 10.07789673 -11.05040821 10.07789673 -9 7 C-8.236875 6.54625 -7.47375 6.0925 -6.6875 5.625 C-4.01605453 4.00970739 -2.11790496 2.27478681 0 0 Z " fill="#19B9CC" transform="translate(201,632)"/>
<path d="M0 0 C0.66 0.33 1.32 0.66 2 1 C1.34 1.66 0.68 2.32 0 3 C4.80616807 3.10075428 4.80616807 3.10075428 9.5546875 2.47265625 C14.40959044 1.80662081 19.11778211 2.1159964 24 2.375 C25.45792969 2.44074219 25.45792969 2.44074219 26.9453125 2.5078125 C31.699721 2.74099875 36.32017846 3.06719773 41 4 C40.67 4.66 40.34 5.32 40 6 C38.72125 5.835 37.4425 5.67 36.125 5.5 C21.48832232 4.06100079 6.64254622 5.14406828 -8 6 C-5.54460659 3.45154504 -3.16995003 1.6256154 0 0 Z " fill="#186E81" transform="translate(324,583)"/>
<path d="M0 0 C1.17175781 0.01353516 1.17175781 0.01353516 2.3671875 0.02734375 C2.94726562 0.03894531 3.52734375 0.05054688 4.125 0.0625 C4.125 0.3925 4.125 0.7225 4.125 1.0625 C1.73030271 1.56854924 -0.66551717 2.06749517 -3.0625 2.5625 C-3.73603516 2.70558594 -4.40957031 2.84867187 -5.10351562 2.99609375 C-8.75009793 3.74319842 -12.15148957 4.23602282 -15.875 4.0625 C-15.875 4.7225 -15.875 5.3825 -15.875 6.0625 C-16.761875 6.041875 -17.64875 6.02125 -18.5625 6 C-21.54825058 6.05633492 -23.96744096 6.46093606 -26.875 7.0625 C-29.14420467 7.42695608 -31.4151491 7.78070441 -33.6875 8.125 C-34.84894531 8.30160156 -36.01039063 8.47820312 -37.20703125 8.66015625 C-38.08746094 8.79292969 -38.96789062 8.92570312 -39.875 9.0625 C-37.31884496 6.50634496 -35.50540641 6.35269895 -31.984375 5.58984375 C-30.20740234 5.20022461 -30.20740234 5.20022461 -28.39453125 4.80273438 C-26.52861328 4.40538086 -26.52861328 4.40538086 -24.625 4 C-23.39652344 3.73123047 -22.16804687 3.46246094 -20.90234375 3.18554688 C-5.83099536 -0.08834841 -5.83099536 -0.08834841 0 0 Z " fill="#4DDEDB" transform="translate(727.875,329.9375)"/>
<path d="M0 0 C-0.54140625 0.70576172 -0.54140625 0.70576172 -1.09375 1.42578125 C-1.5578125 2.04839844 -2.021875 2.67101562 -2.5 3.3125 C-2.9640625 3.92738281 -3.428125 4.54226563 -3.90625 5.17578125 C-5.25711283 7.07433005 -5.25711283 7.07433005 -5 10 C-6.2421875 11.60546875 -6.2421875 11.60546875 -7.875 13.1875 C-8.40867188 13.71730469 -8.94234375 14.24710938 -9.4921875 14.79296875 C-11 16 -11 16 -13 16 C-11.87077242 10.35386208 -9.40683027 4.63328917 -6 0 C-3.37388721 -1.11410846 -2.57190466 -1.28595233 0 0 Z " fill="#19B3C5" transform="translate(154,687)"/>
<path d="M0 0 C2.70939422 0.28361142 5.41722661 0.5766105 8.125 0.875 C8.88554688 0.95363281 9.64609375 1.03226563 10.4296875 1.11328125 C14.85959721 1.60973665 18.80211971 2.40400079 23 4 C22.67 4.66 22.34 5.32 22 6 C19.93757383 6.02717692 17.87504297 6.0464758 15.8125 6.0625 C14.66394531 6.07410156 13.51539063 6.08570313 12.33203125 6.09765625 C9.40699414 6.01192832 6.83683709 5.67849023 4 5 C3.67 4.01 3.34 3.02 3 2 C2.01 1.34 1.02 0.68 0 0 Z " fill="#4DF5FA" transform="translate(647,576)"/>
<path d="M0 0 C0.33 0.99 0.66 1.98 1 3 C1.66 3 2.32 3 3 3 C3.73828125 5.08203125 3.73828125 5.08203125 4 8 C2.82286281 10.42693717 1.67169713 12.46999396 0.1875 14.6875 C-0.18181641 15.26822266 -0.55113281 15.84894531 -0.93164062 16.44726562 C-2.47623169 18.84595731 -3.9779695 20.9779695 -6 23 C-5.28716318 17.87085227 -3.93243564 13.06624386 -2.4375 8.125 C-2.20353516 7.34125 -1.96957031 6.5575 -1.72851562 5.75 C-1.15556462 3.83236805 -0.57822809 1.91604734 0 0 Z " fill="#19ACB6" transform="translate(143,657)"/>
<path d="M0 0 C4.64021883 1.56144246 8.21237569 4.08334353 12.125 6.9375 C12.74503906 7.38029297 13.36507812 7.82308594 14.00390625 8.27929688 C16.88313363 10.35667491 19.5374953 12.44647965 22 15 C21.34 16.32 20.68 17.64 20 19 C18.82174642 18.09827532 17.65768423 17.17798498 16.5 16.25 C15.8503125 15.73953125 15.200625 15.2290625 14.53125 14.703125 C13 13 13 13 13 9 C12.34 8.79375 11.68 8.5875 11 8.375 C6.90698622 6.49903535 3.42505088 3.91511774 0 1 C0 0.67 0 0.34 0 0 Z " fill="#43E4E1" transform="translate(507,324)"/>
<path d="M0 0 C0.33 0.66 0.66 1.32 1 2 C0.1300847 4.56817999 -0.80011915 7.051203 -1.8125 9.5625 C-4.06980999 15.33707409 -5.90633916 20.87549929 -7 27 C-7.33 27 -7.66 27 -8 27 C-7.979375 25.88625 -7.95875 24.7725 -7.9375 23.625 C-7.73619282 20.16784079 -7.73619282 20.16784079 -9 18 C-8.36474424 16.32110979 -7.69313908 14.65583225 -7 13 C-6.9175 12.236875 -6.835 11.47375 -6.75 10.6875 C-5.56742264 6.44993114 -2.74214051 3.37945757 0 0 Z " fill="#29DADD" transform="translate(615,458)"/>
<path d="M0 0 C-0.33 0.66 -0.66 1.32 -1 2 C-3.59204102 2.41064453 -3.59204102 2.41064453 -7.00390625 2.6328125 C-8.82631836 2.75849609 -8.82631836 2.75849609 -10.68554688 2.88671875 C-11.96494141 2.96535156 -13.24433594 3.04398437 -14.5625 3.125 C-15.84576172 3.21136719 -17.12902344 3.29773438 -18.45117188 3.38671875 C-21.63365162 3.59967278 -24.81645709 3.80369151 -28 4 C-28.33 3.01 -28.66 2.02 -29 1 C-19.33960055 -0.26693763 -9.72278418 -0.08984092 0 0 Z " fill="#39F6F7" transform="translate(809,324)"/>
<path d="M0 0 C0.99 0.33 1.98 0.66 3 1 C-0.77850469 6.17410171 -4.43189241 8.72377009 -10.1875 11.4375 C-11.27321289 11.98180664 -11.27321289 11.98180664 -12.38085938 12.53710938 C-14.21983427 13.43179204 -16.10749874 14.22493567 -18 15 C-18.66 14.67 -19.32 14.34 -20 14 C-19.16855469 13.45730469 -18.33710937 12.91460937 -17.48046875 12.35546875 C-16.39378906 11.64003906 -15.30710937 10.92460937 -14.1875 10.1875 C-13.10855469 9.47980469 -12.02960937 8.77210938 -10.91796875 8.04296875 C-8.64384124 6.45077506 -6.88099711 4.99675078 -5 3 C-2.5 1.25 -2.5 1.25 0 0 Z " fill="#31EEF3" transform="translate(549,355)"/>
<path d="M0 0 C1.9781542 2.79268829 2.0867488 4.77777121 1.6875 8.0625 C1 12 1 12 0 15 C-1.65 15.33 -3.3 15.66 -5 16 C-4.125 8.375 -4.125 8.375 -3 5 C-2.34 5 -1.68 5 -1 5 C-0.67 3.35 -0.34 1.7 0 0 Z " fill="#46F4F7" transform="translate(288,434)"/>
<path d="M0 0 C0.33 0.66 0.66 1.32 1 2 C2.65 1.67 4.3 1.34 6 1 C5 3 5 3 2 5 C0.97889461 7.87116002 0.97889461 7.87116002 0.3125 11.125 C0.06113281 12.22070312 -0.19023437 13.31640625 -0.44921875 14.4453125 C-0.63097656 15.28835938 -0.81273437 16.13140625 -1 17 C-1.33 16.01 -1.66 15.02 -2 14 C-2.99 14 -3.98 14 -5 14 C-4.55037804 12.03964825 -4.09001752 10.08175691 -3.625 8.125 C-3.36976563 7.03445313 -3.11453125 5.94390625 -2.8515625 4.8203125 C-2 2 -2 2 0 0 Z " fill="#2AC7D3" transform="translate(508,492)"/>
<path d="M0 0 C0.99 0.66 1.98 1.32 3 2 C2.45061768 2.37286133 1.90123535 2.74572266 1.33520508 3.12988281 C-1.17380595 4.83447607 -3.68066554 6.5422076 -6.1875 8.25 C-7.05181641 8.83652344 -7.91613281 9.42304687 -8.80664062 10.02734375 C-12.99481437 12.88364615 -17.10693085 15.74368543 -21 19 C-21.66 18.67 -22.32 18.34 -23 18 C-6.08300395 4.05533597 -6.08300395 4.05533597 0 0 Z " fill="#173245" transform="translate(282,606)"/>
<path d="M0 0 C0.33 0 0.66 0 1 0 C1 1.65 1 3.3 1 5 C1.99 4.67 2.98 4.34 4 4 C3.39254603 8.85963179 1.27241033 12.7405518 -1 17 C-1.66 17 -2.32 17 -3 17 C-2.48517081 11.147205 -1.54642808 5.6702363 0 0 Z " fill="#21C8E0" transform="translate(148,639)"/>
<path d="M0 0 C0 0.66 0 1.32 0 2 C-3.88969607 3.6812573 -7.78766871 5.3424037 -11.6875 7 C-12.79029297 7.47695313 -13.89308594 7.95390625 -15.02929688 8.4453125 C-16.09599609 8.89648438 -17.16269531 9.34765625 -18.26171875 9.8125 C-19.24100342 10.23144531 -20.22028809 10.65039062 -21.22924805 11.08203125 C-24.01005659 12.00333182 -26.09512245 12.18546704 -29 12 C-26.60878443 9.60878443 -24.54640411 8.8695932 -21.40625 7.6171875 C-20.29378906 7.17246094 -19.18132813 6.72773438 -18.03515625 6.26953125 C-16.86855469 5.80933594 -15.70195313 5.34914063 -14.5 4.875 C-12.75009766 4.17310547 -12.75009766 4.17310547 -10.96484375 3.45703125 C-2.26683218 0 -2.26683218 0 0 0 Z " fill="#4CD7D4" transform="translate(596,366)"/>
<path d="M0 0 C0 3 0 3 -1.56054688 4.90112305 C-2.27275391 5.59761963 -2.98496094 6.29411621 -3.71875 7.01171875 C-4.48574219 7.76904297 -5.25273437 8.52636719 -6.04296875 9.30664062 C-6.85378906 10.09232422 -7.66460937 10.87800781 -8.5 11.6875 C-9.31082031 12.48478516 -10.12164062 13.28207031 -10.95703125 14.10351562 C-12.96482203 16.0758748 -14.9792687 18.04091492 -17 20 C-17.33 19.01 -17.66 18.02 -18 17 C-13.76676966 12.64771006 -9.40978477 8.52677576 -4.796875 4.578125 C-3.12659942 3.11118731 -1.55211328 1.59043707 0 0 Z " fill="#1FB4C1" transform="translate(236,589)"/>
<path d="M0 0 C1 3 1 3 0.0625 5.1875 C-0.4634375 6.0846875 -0.4634375 6.0846875 -1 7 C1.31 5.35 3.62 3.7 6 2 C4.5611898 5.387199 2.77880501 7.3594104 0 9.75 C-1.051875 10.67039062 -1.051875 10.67039062 -2.125 11.609375 C-4 13 -4 13 -6 13 C-4.75696561 7.82069003 -3.14512215 4.29833361 0 0 Z " fill="#0F9FB7" transform="translate(142,696)"/>
<path d="M0 0 C1.65 0 3.3 0 5 0 C2.73198996 2.66824711 0.09115137 4.0833303 -2.94921875 5.75 C-6.8840249 8.14835803 -10.41933398 11.10948503 -14 14 C-14.66 13.67 -15.32 13.34 -16 13 C-15.525625 12.566875 -15.05125 12.13375 -14.5625 11.6875 C-12.76313043 9.97690387 -12.76313043 9.97690387 -12 7 C-10.68 7 -9.36 7 -8 7 C-8 6.34 -8 5.68 -8 5 C-2.25 2 -2.25 2 0 2 C0 1.34 0 0.68 0 0 Z " fill="#12A2AC" transform="translate(563,451)"/>
<path d="M0 0 C-1.65 0.33 -3.3 0.66 -5 1 C-5 1.66 -5 2.32 -5 3 C-5.66 3 -6.32 3 -7 3 C-6.67 4.32 -6.34 5.64 -6 7 C-7.65 7.66 -9.3 8.32 -11 9 C-11.33 8.34 -11.66 7.68 -12 7 C-13.65 7 -15.3 7 -17 7 C-15.62045621 4.24091241 -13.93513795 3.78517015 -11.1875 2.4375 C-9.87845703 1.78587891 -9.87845703 1.78587891 -8.54296875 1.12109375 C-2.81142857 -1.40571429 -2.81142857 -1.40571429 0 0 Z " fill="#184850" transform="translate(524,469)"/>
<path d="M0 0 C1.32 0.33 2.64 0.66 4 1 C4 2.32 4 3.64 4 5 C2.68 5 1.36 5 0 5 C-2.4532679 6.96819164 -2.4532679 6.96819164 -4.75 9.5 C-5.54921875 10.3353125 -6.3484375 11.170625 -7.171875 12.03125 C-7.77515625 12.6809375 -8.3784375 13.330625 -9 14 C-9 9.82438593 -7.16647522 8.46042213 -4.5 5.3125 C-3.6646875 4.31863281 -2.829375 3.32476563 -1.96875 2.30078125 C-0.99421875 1.16189453 -0.99421875 1.16189453 0 0 Z " fill="#1AB7C9" transform="translate(530,576)"/>
<path d="M0 0 C0.66 0.33 1.32 0.66 2 1 C1.34 1.66 0.68 2.32 0 3 C3.96 3.33 7.92 3.66 12 4 C12 4.33 12 4.66 12 5 C5.4 5.33 -1.2 5.66 -8 6 C-5.36435544 3.36435544 -3.27929831 1.68169144 0 0 Z " fill="#165769" transform="translate(324,583)"/>
<path d="M0 0 C3.3 0 6.6 0 10 0 C9.67 1.32 9.34 2.64 9 4 C3.22922636 7.15759312 3.22922636 7.15759312 -0.4375 6.6875 C-0.953125 6.460625 -1.46875 6.23375 -2 6 C-0.02 5.67 1.96 5.34 4 5 C4.33 3.68 4.66 2.36 5 1 C3.35 1 1.7 1 0 1 C0 0.67 0 0.34 0 0 Z " fill="#4DF9F9" transform="translate(664,303)"/>
<path d="M0 0 C5.91492272 0.45224761 11.35199888 1.1582605 17 3 C13.40690822 5.39539452 12.60145393 5.08979167 8.5 4.3125 C7.5409375 4.14363281 6.581875 3.97476563 5.59375 3.80078125 C2.8865936 2.96498748 1.76620711 2.16599048 0 0 Z " fill="#42F8FC" transform="translate(637,575)"/>
<path d="M0 0 C0.66 0.33 1.32 0.66 2 1 C1.34 1.66 0.68 2.32 0 3 C0.33 3.66 0.66 4.32 1 5 C-0.7664657 6.0076952 -2.53833823 7.00591714 -4.3125 8 C-5.79169922 8.8353125 -5.79169922 8.8353125 -7.30078125 9.6875 C-10 11 -10 11 -13 11 C-8.71 7.37 -4.42 3.74 0 0 Z " fill="#152C3E" transform="translate(180,689)"/>
<path d="M0 0 C0 5.05045815 -3.77351632 8.32271022 -7 12 C-8.93045331 13.82157742 -10.8788999 15.39624139 -13 17 C-11.2703384 12.79046213 -8.31793255 9.64856424 -5.375 6.25 C-4.859375 5.64800781 -4.34375 5.04601562 -3.8125 4.42578125 C-2.54530865 2.94739134 -1.27314225 1.47326829 0 0 Z " fill="#18919F" transform="translate(177,651)"/>
<path d="M0 0 C-1.28627711 1.17260611 -2.57919783 2.3379283 -3.875 3.5 C-4.59429688 4.1496875 -5.31359375 4.799375 -6.0546875 5.46875 C-8 7 -8 7 -10 7 C-9.67 6.01 -9.34 5.02 -9 4 C-8.34 4 -7.68 4 -7 4 C-7 3.34 -7 2.68 -7 2 C-7.99 1.67 -8.98 1.34 -10 1 C-6.16112237 -0.48320272 -3.93795909 -1.22419163 0 0 Z " fill="#19848C" transform="translate(551,461)"/>
<path d="M0 0 C5.61 0.66 11.22 1.32 17 2 C17 2.33 17 2.66 17 3 C14.36 3 11.72 3 9 3 C9 3.66 9 4.32 9 5 C7.35 5 5.7 5 4 5 C3.67 4.01 3.34 3.02 3 2 C2.01 1.34 1.02 0.68 0 0 Z " fill="#4FDCE0" transform="translate(647,576)"/>
<path d="M0 0 C0.51046875 0.23589844 1.0209375 0.47179687 1.546875 0.71484375 C-0.69619528 1.91734533 -2.9460041 3.10175995 -5.203125 4.27734375 C-6.15445312 4.79071289 -6.15445312 4.79071289 -7.125 5.31445312 C-11.90407938 7.77866593 -11.90407938 7.77866593 -14.90625 7.4296875 C-15.41671875 7.19378906 -15.9271875 6.95789063 -16.453125 6.71484375 C-14.21005472 5.51234217 -11.9602459 4.32792755 -9.703125 3.15234375 C-8.75179688 2.63897461 -8.75179688 2.63897461 -7.78125 2.11523438 C-3.00217062 -0.34897843 -3.00217062 -0.34897843 0 0 Z " fill="#4DD9D5" transform="translate(511.453125,404.28515625)"/>
<path d="M0 0 C0.99 0.33 1.98 0.66 3 1 C0.71439353 2.5306999 -1.57762667 4.04965044 -3.875 5.5625 C-4.52597656 6.00013672 -5.17695313 6.43777344 -5.84765625 6.88867188 C-7.52625497 7.98754836 -9.26023387 9.0007818 -11 10 C-11.66 9.67 -12.32 9.34 -13 9 C-11.20966193 7.68568828 -9.41768797 6.3736047 -7.625 5.0625 C-6.62726563 4.33160156 -5.62953125 3.60070312 -4.6015625 2.84765625 C-2 1 -2 1 0 0 Z " fill="#44E7E9" transform="translate(384,476)"/>
<path d="M0 0 C0 0.33 0 0.66 0 1 C-2.97851562 1.34179688 -2.97851562 1.34179688 -5.95703125 1.68359375 C-8.19396393 1.97170735 -8.19396393 1.97170735 -11 3 C-12.66666667 3 -14.33333333 3 -16 3 C-16.99 3.495 -16.99 3.495 -18 4 C-19.67654729 3.72057545 -21.34608154 3.39171753 -23 3 C-23 2.67 -23 2.34 -23 2 C-15.2441657 0.29005228 -7.93396732 -0.24923458 0 0 Z " fill="#4EEFF1" transform="translate(773,325)"/>
<path d="M0 0 C1.0703125 3.7578125 1.0703125 3.7578125 0.4375 5.9375 C-1.62340245 8.894447 -4.16338719 10.78004215 -7 13 C-5.35821735 8.22390502 -2.73453298 4.20617096 0 0 Z " fill="#2495A8" transform="translate(129,716)"/>
<path d="M0 0 C0.66 0 1.32 0 2 0 C0.42219077 3.71045247 -1.90703248 6.29906384 -4.625 9.25 C-5.44226563 10.14203125 -6.25953125 11.0340625 -7.1015625 11.953125 C-7.72804688 12.62859375 -8.35453125 13.3040625 -9 14 C-9 9.85326976 -7.24222063 8.47050281 -4.625 5.3125 C-3.81289063 4.31863281 -3.00078125 3.32476563 -2.1640625 2.30078125 C-1.44992187 1.54152344 -0.73578125 0.78226563 0 0 Z " fill="#21A5B2" transform="translate(529,583)"/>
<path d="M0 0 C0.33 0 0.66 0 1 0 C1.625 2.875 1.625 2.875 2 6 C1.34 6.66 0.68 7.32 0 8 C-0.33669385 10.04573478 -0.44069172 12.05600952 -0.55859375 14.125 C-1 16 -1 16 -4 18 C-3.31195504 11.80759538 -1.71951285 5.98044406 0 0 Z " fill="#28B7C8" transform="translate(166,574)"/>
<path d="M0 0 C1 2 1 2 0.22265625 4.3828125 C-0.16019531 5.28773438 -0.54304687 6.19265625 -0.9375 7.125 C-1.31777344 8.03507812 -1.69804688 8.94515625 -2.08984375 9.8828125 C-2.54037109 10.93082031 -2.54037109 10.93082031 -3 12 C-4.32 11.34 -5.64 10.68 -7 10 C-3.535 5.05 -3.535 5.05 0 0 Z " fill="#26C2C3" transform="translate(615,458)"/>
<path d="M0 0 C0 0.99 0 1.98 0 3 C-2.3125 5.25 -2.3125 5.25 -5 7 C-5.99 6.67 -6.98 6.34 -8 6 C-4.55384615 1.2 -4.55384615 1.2 -1.75 0.1875 C-1.1725 0.125625 -0.595 0.06375 0 0 Z " fill="#14A4B6" transform="translate(157,680)"/>
<path d="M0 0 C1.28939122 2.57878244 0.96551673 4.14514163 0.6875 7 C0.60886719 7.886875 0.53023437 8.77375 0.44921875 9.6875 C0 12 0 12 -2 14 C-2 11.69 -2 9.38 -2 7 C-2.99 7.495 -2.99 7.495 -4 8 C-3.50168276 4.31245243 -2.89932357 2.39509338 0 0 Z " fill="#2FEDF1" transform="translate(607,477)"/>
<path d="M0 0 C0.33 0.66 0.66 1.32 1 2 C0.34 2 -0.32 2 -1 2 C-1.20625 2.639375 -1.4125 3.27875 -1.625 3.9375 C-3 6 -3 6 -6.125 6.75 C-7.548125 6.87375 -7.548125 6.87375 -9 7 C-8.00310405 4.50776013 -7.38477686 3.23583098 -5.0625 1.8125 C-3.39484226 1.15554392 -1.70041355 0.56680452 0 0 Z " fill="#14AEBB" transform="translate(604,445)"/>
<path d="M0 0 C-1.5529276 0.87144869 -3.11785436 1.72153657 -4.6875 2.5625 C-5.55761719 3.03816406 -6.42773438 3.51382812 -7.32421875 4.00390625 C-10.38328753 5.14268368 -11.91863039 4.92718689 -15 4 C-12.39457984 2.26305323 -10.41657225 1.30899552 -7.5 0.3125 C-6.33984375 -0.09548828 -6.33984375 -0.09548828 -5.15625 -0.51171875 C-3 -1 -3 -1 0 0 Z " fill="#147A88" transform="translate(578,446)"/>
<path d="M0 0 C-0.99 1.485 -0.99 1.485 -2 3 C-4.6015625 3.29296875 -4.6015625 3.29296875 -7.625 3.1875 C-9.12933594 3.14689453 -9.12933594 3.14689453 -10.6640625 3.10546875 C-11.43492187 3.07066406 -12.20578125 3.03585937 -13 3 C-12.67 2.34 -12.34 1.68 -12 1 C-7.973409 0.22565558 -4.09613971 -0.12412545 0 0 Z " fill="#107082" transform="translate(392,651)"/>
<path d="M0 0 C0.99 0 1.98 0 3 0 C2.48118887 4.1724106 1.28848726 6.25416821 -1.5625 9.3125 C-2.20316406 10.00988281 -2.84382812 10.70726562 -3.50390625 11.42578125 C-3.99761719 11.94527344 -4.49132812 12.46476562 -5 13 C-5 10 -5 10 -2.5 7.0625 C0.42158433 4.14244939 0.42158433 4.14244939 0 0 Z " fill="#12BCC9" transform="translate(595,439)"/>
<path d="M0 0 C6.27 0 12.54 0 19 0 C15.02033543 1.98983228 14.32324868 2.22400716 10.25 1.625 C9.45078125 1.51414062 8.6515625 1.40328125 7.828125 1.2890625 C6.92320312 1.14597656 6.92320312 1.14597656 6 1 C5.67 1.99 5.34 2.98 5 4 C3.31503702 3.03114628 1.64821244 2.03013277 0 1 C0 0.67 0 0.34 0 0 Z " fill="#4AF7F8" transform="translate(170,302)"/>
<path d="M0 0 C0.99 0.66 1.98 1.32 3 2 C1.56705502 2.84114171 0.12845595 3.67265687 -1.3125 4.5 C-2.51326172 5.19609375 -2.51326172 5.19609375 -3.73828125 5.90625 C-6 7 -6 7 -9 7 C-6.24479785 4.04070881 -3.53372712 1.96318174 0 0 Z " fill="#1BCAD5" transform="translate(519,374)"/>
<path d="M0 0 C1.65 0 3.3 0 5 0 C5.66 1.32 6.32 2.64 7 4 C6.34 4.66 5.68 5.32 5 6 C3.2925002 4.71937515 1.62626404 3.38232443 0 2 C0 1.34 0 0.68 0 0 Z " fill="#39F3F1" transform="translate(522,337)"/>
<path d="M0 0 C0.33 0.99 0.66 1.98 1 3 C1.66 3 2.32 3 3 3 C3.6875 5.3125 3.6875 5.3125 4 8 C2.5625 9.8125 2.5625 9.8125 1 11 C0.855625 10.05125 0.71125 9.1025 0.5625 8.125 C0.17064601 5.1065506 0.17064601 5.1065506 -1 3 C-0.67 2.01 -0.34 1.02 0 0 Z " fill="#12A5B8" transform="translate(143,657)"/>
<path d="M0 0 C0.33 0.66 0.66 1.32 1 2 C2.65 1.67 4.3 1.34 6 1 C5 3 5 3 2 5 C1.01 6.485 1.01 6.485 0 8 C0 7.01 0 6.02 0 5 C-0.66 5 -1.32 5 -2 5 C-1.125 1.125 -1.125 1.125 0 0 Z " fill="#22B3BF" transform="translate(508,492)"/>
<path d="M0 0 C0.75 1.75 0.75 1.75 1 4 C-0.8125 6.25 -0.8125 6.25 -3 8 C-3.66 8 -4.32 8 -5 8 C-3.8141763 4.62496331 -2.72426311 2.35277269 0 0 Z " fill="#099FBC" transform="translate(134,712)"/>
<path d="M0 0 C4.97093824 0.41153737 9.44508386 0.79600832 14 3 C14 3.66 14 4.32 14 5 C12.22739369 4.54857225 10.4569632 4.08859477 8.6875 3.625 C7.20830078 3.24214844 7.20830078 3.24214844 5.69921875 2.8515625 C3 2 3 2 0 0 Z " fill="#24A0A7" transform="translate(432,374)"/>
<path d="M0 0 C0.99 0.33 1.98 0.66 3 1 C1.35 2.98 -0.3 4.96 -2 7 C-2.99 6.67 -3.98 6.34 -5 6 C-4.67 5.34 -4.34 4.68 -4 4 C-3.34 4 -2.68 4 -2 4 C-1.34 2.68 -0.68 1.36 0 0 Z " fill="#41E9F0" transform="translate(549,355)"/>
<path d="M0 0 C1.98 0 3.96 0 6 0 C4.8553125 0.8971875 4.8553125 0.8971875 3.6875 1.8125 C1.6516425 3.46959332 -0.1978279 5.10297674 -2 7 C-2.66 6.67 -3.32 6.34 -4 6 C-3.525625 5.566875 -3.05125 5.13375 -2.5625 4.6875 C-0.76313043 2.97690387 -0.76313043 2.97690387 0 0 Z " fill="#1EAFB8" transform="translate(551,458)"/>
<path d="M0 0 C1.32789969 2.1871289 2.04752686 3.47720456 1.8125 6.0625 C0.89199398 8.25755282 -0.21596223 9.44866281 -2 11 C-1.125 3.375 -1.125 3.375 0 0 Z " fill="#40CBC8" transform="translate(215,395)"/>
<path d="M0 0 C0.33 0 0.66 0 1 0 C1 2.64 1 5.28 1 8 C0.01 8 -0.98 8 -2 8 C-1.125 1.125 -1.125 1.125 0 0 Z " fill="#17C7D9" transform="translate(143,661)"/>
<path d="M0 0 C0.66 0.66 1.32 1.32 2 2 C1.625 5.625 1.625 5.625 1 9 C0.34 9 -0.32 9 -1 9 C-0.67 6.03 -0.34 3.06 0 0 Z " fill="#1BCEE6" transform="translate(146,647)"/>
<path d="M0 0 C-0.33 0.66 -0.66 1.32 -1 2 C-1.66 2 -2.32 2 -3 2 C-3 2.66 -3 3.32 -3 4 C-5.97 3.505 -5.97 3.505 -9 3 C-5.92807025 0.26939578 -4.09590633 -0.34132553 0 0 Z " fill="#184E59" transform="translate(550,457)"/>
<path d="M0 0 C-0.66 1.65 -1.32 3.3 -2 5 C-3.65 5 -5.3 5 -7 5 C-5.64703851 0.94111554 -4.27479763 0 0 0 Z " fill="#17C3D1" transform="translate(600,450)"/>
<path d="M0 0 C0.99 0 1.98 0 3 0 C3 0.66 3 1.32 3 2 C1.5390625 3.2890625 1.5390625 3.2890625 -0.375 4.625 C-1.00148438 5.07101562 -1.62796875 5.51703125 -2.2734375 5.9765625 C-4 7 -4 7 -6 7 C-6 6.34 -6 5.68 -6 5 C-5.38125 4.9175 -4.7625 4.835 -4.125 4.75 C-1.81562433 4.18741541 -1.81562433 4.18741541 -0.75 1.9375 C-0.5025 1.298125 -0.255 0.65875 0 0 Z " fill="#15808C" transform="translate(641,411)"/>
<path d="M0 0 C0.33 0.99 0.66 1.98 1 3 C-1.31 5.31 -3.62 7.62 -6 10 C-6 6.41087588 -5.33563446 5.89142971 -3 3.3125 C-2.443125 2.68988281 -1.88625 2.06726563 -1.3125 1.42578125 C-0.879375 0.95527344 -0.44625 0.48476563 0 0 Z " fill="#1DA5B5" transform="translate(527,580)"/>
<path d="M0 0 C0.33 0.66 0.66 1.32 1 2 C-0.65 3.98 -2.3 5.96 -4 8 C-4.99 7.67 -5.98 7.34 -7 7 C-6.01 6.67 -5.02 6.34 -4 6 C-2.90833725 4.06669397 -2.90833725 4.06669397 -2 2 C-1.34 1.34 -0.68 0.68 0 0 Z " fill="#20B4C5" transform="translate(489,541)"/>
<path d="M0 0 C2.64 0.33 5.28 0.66 8 1 C8 1.33 8 1.66 8 2 C3.23692563 2.95261487 -1.1666528 3.08333357 -6 3 C-6 2.67 -6 2.34 -6 2 C-4.02 2 -2.04 2 0 2 C0 1.34 0 0.68 0 0 Z " fill="#24494D" transform="translate(784,321)"/>
<path d="M0 0 C0.66 0.33 1.32 0.66 2 1 C0.35 2.98 -1.3 4.96 -3 7 C-4 5 -4 5 -3.75 2.9375 C-3.5025 2.298125 -3.255 1.65875 -3 1 C-2.01 0.67 -1.02 0.34 0 0 Z " fill="#15B9CE" transform="translate(152,686)"/>
<path d="M0 0 C0 0.99 0 1.98 0 3 C-2.8125 4.5625 -2.8125 4.5625 -6 6 C-6.99 5.67 -7.98 5.34 -9 5 C-6.03 3.35 -3.06 1.7 0 0 Z " fill="#4DDFDD" transform="translate(448,437)"/>
<path d="M0 0 C0.33 0 0.66 0 1 0 C1.125 2.875 1.125 2.875 1 6 C0.34 6.66 -0.32 7.32 -1 8 C-1.66 6.02 -2.32 4.04 -3 2 C-2.01 2 -1.02 2 0 2 C0 1.34 0 0.68 0 0 Z " fill="#3FE9EA" transform="translate(291,431)"/>
</svg>
